<?xml version="1.0" encoding="UTF-8" standalone="no"?>
<!DOCTYPE svg PUBLIC "-//W3C//DTD SVG 1.1//EN"
 "http://www.w3.org/Graphics/SVG/1.1/DTD/svg11.dtd">
<!-- Generated by graphviz version 12.2.1 (20241206.2353)
 -->
<!-- Title: G Pages: 1 -->
<svg width="1211pt" height="2594pt"
 viewBox="0.00 0.00 1211.04 2593.69" xmlns="http://www.w3.org/2000/svg" xmlns:xlink="http://www.w3.org/1999/xlink">
<g id="graph0" class="graph" transform="scale(1 1) rotate(0) translate(4 2589.69)">
<title>G</title>
<polygon fill="white" stroke="none" points="-4,4 -4,-2589.69 1207.04,-2589.69 1207.04,4 -4,4"/>
<text text-anchor="middle" x="601.52" y="-2562.69" font-family="Times,serif" font-size="20.00">Travel / Places Detail</text>
<g id="clust1" class="cluster">
<title>cluster_entities</title>
<path fill="white" stroke="#d8dee9" d="M20,-511.19C20,-511.19 330.04,-511.19 330.04,-511.19 336.04,-511.19 342.04,-517.19 342.04,-523.19 342.04,-523.19 342.04,-1375.19 342.04,-1375.19 342.04,-1381.19 336.04,-1387.19 330.04,-1387.19 330.04,-1387.19 20,-1387.19 20,-1387.19 14,-1387.19 8,-1381.19 8,-1375.19 8,-1375.19 8,-523.19 8,-523.19 8,-517.19 14,-511.19 20,-511.19"/>
<text text-anchor="middle" x="175.02" y="-1364.19" font-family="Times,serif" font-size="20.00">V6Entity</text>
</g>
<g id="clust2" class="cluster">
<title>cluster_memories</title>
<path fill="white" stroke="#d8dee9" d="M472.29,-24.19C472.29,-24.19 1183.04,-24.19 1183.04,-24.19 1189.04,-24.19 1195.04,-30.19 1195.04,-36.19 1195.04,-36.19 1195.04,-2535.19 1195.04,-2535.19 1195.04,-2541.19 1189.04,-2547.19 1183.04,-2547.19 1183.04,-2547.19 472.29,-2547.19 472.29,-2547.19 466.29,-2547.19 460.29,-2541.19 460.29,-2535.19 460.29,-2535.19 460.29,-36.19 460.29,-36.19 460.29,-30.19 466.29,-24.19 472.29,-24.19"/>
<text text-anchor="middle" x="827.66" y="-2524.19" font-family="Times,serif" font-size="20.00">V6MemoryRef &#45;&gt; PG flat memory</text>
</g>
<!-- e_v6ent_ad07057ea8894b489269ea10 -->
<g id="node1" class="node">
<title>e_v6ent_ad07057ea8894b489269ea10</title>
<ellipse fill="#dff4df" stroke="#4a8f4a" stroke-width="1.2" cx="175.02" cy="-1330.19" rx="71.6" ry="18"/>
<text text-anchor="middle" x="175.02" y="-1326.31" font-family="Helvetica,sans-Serif" font-size="10.00">Rome\n(Location, d=16)</text>
</g>
<!-- m_episodic_ep_LKIU -->
<g id="node16" class="node">
<title>m_episodic_ep_LKIU</title>
<path fill="#fff2bf" stroke="#b38a00" stroke-width="1.2" d="M1062.16,-1898.19C1062.16,-1898.19 593.16,-1898.19 593.16,-1898.19 587.16,-1898.19 581.16,-1892.19 581.16,-1886.19 581.16,-1886.19 581.16,-1874.19 581.16,-1874.19 581.16,-1868.19 587.16,-1862.19 593.16,-1862.19 593.16,-1862.19 1062.16,-1862.19 1062.16,-1862.19 1068.16,-1862.19 1074.16,-1868.19 1074.16,-1874.19 1074.16,-1874.19 1074.16,-1886.19 1074.16,-1886.19 1074.16,-1892.19 1068.16,-1898.19 1062.16,-1898.19"/>
<text text-anchor="middle" x="827.66" y="-1876.31" font-family="Helvetica,sans-Serif" font-size="10.00">E: 2023&#45;05&#45;21\nUser asked about the significance\nof the Vatican in Rome and what\nvisitors can see inside.</text>
</g>
<!-- e_v6ent_ad07057ea8894b489269ea10&#45;&gt;m_episodic_ep_LKIU -->
<g id="edge53" class="edge">
<title>e_v6ent_ad07057ea8894b489269ea10&#45;&gt;m_episodic_ep_LKIU</title>
<path fill="none" stroke="#5f8dd3" d="M176.34,-1348.68C178.8,-1425.44 199.38,-1720.81 370.04,-1848.19 403.67,-1873.29 487.28,-1883.13 573.91,-1886.02"/>
<polygon fill="#5f8dd3" stroke="#5f8dd3" points="573.61,-1887.94 579.17,-1886.19 573.73,-1884.09 573.61,-1887.94"/>
<text text-anchor="middle" x="401.16" y="-1872.39" font-family="Helvetica,sans-Serif" font-size="8.00">APPEARS_IN</text>
</g>
<!-- m_episodic_ep_VT1U -->
<g id="node39" class="node">
<title>m_episodic_ep_VT1U</title>
<path fill="#fff2bf" stroke="#b38a00" stroke-width="1.2" d="M1148.79,-2203.19C1148.79,-2203.19 506.54,-2203.19 506.54,-2203.19 500.54,-2203.19 494.54,-2197.19 494.54,-2191.19 494.54,-2191.19 494.54,-2179.19 494.54,-2179.19 494.54,-2173.19 500.54,-2167.19 506.54,-2167.19 506.54,-2167.19 1148.79,-2167.19 1148.79,-2167.19 1154.79,-2167.19 1160.79,-2173.19 1160.79,-2179.19 1160.79,-2179.19 1160.79,-2191.19 1160.79,-2191.19 1160.79,-2197.19 1154.79,-2203.19 1148.79,-2203.19"/>
<text text-anchor="middle" x="827.66" y="-2181.31" font-family="Helvetica,sans-Serif" font-size="10.00">E: 2023&#45;05&#45;21\nAssistant recommended restaurants\nnear the Vatican including\nPizzarium, La Locanda dei\nGirasoli, Roscioli, and Caffè\nVaticano.</text>
</g>
<!-- e_v6ent_ad07057ea8894b489269ea10&#45;&gt;m_episodic_ep_VT1U -->
<g id="edge52" class="edge">
<title>e_v6ent_ad07057ea8894b489269ea10&#45;&gt;m_episodic_ep_VT1U</title>
<path fill="none" stroke="#5f8dd3" d="M178.05,-1348.39C190.35,-1455.77 258.24,-2006.05 370.04,-2126.19 460.09,-2222.95 624.34,-2219.32 729.35,-2204.62"/>
<polygon fill="#5f8dd3" stroke="#5f8dd3" points="729.51,-2206.55 734.68,-2203.86 728.97,-2202.73 729.51,-2206.55"/>
<text text-anchor="middle" x="401.16" y="-2171.69" font-family="Helvetica,sans-Serif" font-size="8.00">APPEARS_IN</text>
</g>
<!-- m_episodic_ep_QKUF -->
<g id="node41" class="node">
<title>m_episodic_ep_QKUF</title>
<path fill="#fff2bf" stroke="#b38a00" stroke-width="1.2" d="M959.79,-2142.19C959.79,-2142.19 695.54,-2142.19 695.54,-2142.19 689.54,-2142.19 683.54,-2136.19 683.54,-2130.19 683.54,-2130.19 683.54,-2118.19 683.54,-2118.19 683.54,-2112.19 689.54,-2106.19 695.54,-2106.19 695.54,-2106.19 959.79,-2106.19 959.79,-2106.19 965.79,-2106.19 971.79,-2112.19 971.79,-2118.19 971.79,-2118.19 971.79,-2130.19 971.79,-2130.19 971.79,-2136.19 965.79,-2142.19 959.79,-2142.19"/>
<text text-anchor="middle" x="827.66" y="-2120.31" font-family="Helvetica,sans-Serif" font-size="10.00">E: 2023&#45;05&#45;21\nUser asked for general tips for\nvisiting Rome.</text>
</g>
<!-- e_v6ent_ad07057ea8894b489269ea10&#45;&gt;m_episodic_ep_QKUF -->
<g id="edge51" class="edge">
<title>e_v6ent_ad07057ea8894b489269ea10&#45;&gt;m_episodic_ep_QKUF</title>
<path fill="none" stroke="#5f8dd3" d="M177.9,-1348.53C189.16,-1454.31 251.13,-1985.22 370.04,-2086.19 415.04,-2124.4 561.34,-2131.08 676.36,-2129.94"/>
<polygon fill="#5f8dd3" stroke="#5f8dd3" points="676.2,-2131.87 681.68,-2129.88 676.16,-2128.02 676.2,-2131.87"/>
<text text-anchor="middle" x="401.16" y="-2112.52" font-family="Helvetica,sans-Serif" font-size="8.00">APPEARS_IN</text>
</g>
<!-- m_episodic_ep_IEUT -->
<g id="node51" class="node">
<title>m_episodic_ep_IEUT</title>
<path fill="#fff2bf" stroke="#b38a00" stroke-width="1.2" d="M1077.91,-2508.19C1077.91,-2508.19 577.41,-2508.19 577.41,-2508.19 571.41,-2508.19 565.41,-2502.19 565.41,-2496.19 565.41,-2496.19 565.41,-2484.19 565.41,-2484.19 565.41,-2478.19 571.41,-2472.19 577.41,-2472.19 577.41,-2472.19 1077.91,-2472.19 1077.91,-2472.19 1083.91,-2472.19 1089.91,-2478.19 1089.91,-2484.19 1089.91,-2484.19 1089.91,-2496.19 1089.91,-2496.19 1089.91,-2502.19 1083.91,-2508.19 1077.91,-2508.19"/>
<text text-anchor="middle" x="827.66" y="-2486.31" font-family="Helvetica,sans-Serif" font-size="10.00">E: 2024&#45;02&#45;05\nAssistant recommends must&#45;see\nEuropean destinations and\nexperiences for travelers in their\n30s</text>
</g>
<!-- e_v6ent_ad07057ea8894b489269ea10&#45;&gt;m_episodic_ep_IEUT -->
<g id="edge46" class="edge">
<title>e_v6ent_ad07057ea8894b489269ea10&#45;&gt;m_episodic_ep_IEUT</title>
<path fill="none" stroke="#5f8dd3" d="M176.81,-1348.42C182.77,-1477.52 224.36,-2253.4 370.04,-2427.19 456.06,-2529.81 624.71,-2525.19 731.22,-2509.68"/>
<polygon fill="#5f8dd3" stroke="#5f8dd3" points="731.49,-2511.59 736.65,-2508.87 730.92,-2507.78 731.49,-2511.59"/>
<text text-anchor="middle" x="401.16" y="-2474.86" font-family="Helvetica,sans-Serif" font-size="8.00">APPEARS_IN</text>
</g>
<!-- m_episodic_ep_DSYZ -->
<g id="node52" class="node">
<title>m_episodic_ep_DSYZ</title>
<path fill="#fff2bf" stroke="#b38a00" stroke-width="1.2" d="M1076.04,-2447.19C1076.04,-2447.19 579.29,-2447.19 579.29,-2447.19 573.29,-2447.19 567.29,-2441.19 567.29,-2435.19 567.29,-2435.19 567.29,-2423.19 567.29,-2423.19 567.29,-2417.19 573.29,-2411.19 579.29,-2411.19 579.29,-2411.19 1076.04,-2411.19 1076.04,-2411.19 1082.04,-2411.19 1088.04,-2417.19 1088.04,-2423.19 1088.04,-2423.19 1088.04,-2435.19 1088.04,-2435.19 1088.04,-2441.19 1082.04,-2447.19 1076.04,-2447.19"/>
<text text-anchor="middle" x="827.66" y="-2425.31" font-family="Helvetica,sans-Serif" font-size="10.00">E: 2023&#45;05&#45;24\nUser shared solo trip experience\nto New York City and sought travel\nbudgeting tips for Europe trip</text>
</g>
<!-- e_v6ent_ad07057ea8894b489269ea10&#45;&gt;m_episodic_ep_DSYZ -->
<g id="edge47" class="edge">
<title>e_v6ent_ad07057ea8894b489269ea10&#45;&gt;m_episodic_ep_DSYZ</title>
<path fill="none" stroke="#5f8dd3" d="M177.03,-1348.61C184.25,-1474.08 231.82,-2202.98 370.04,-2366.19 456.32,-2468.07 624.08,-2463.92 730.47,-2448.66"/>
<polygon fill="#5f8dd3" stroke="#5f8dd3" points="730.73,-2450.57 735.89,-2447.86 730.17,-2446.76 730.73,-2450.57"/>
<text text-anchor="middle" x="401.16" y="-2413.68" font-family="Helvetica,sans-Serif" font-size="8.00">APPEARS_IN</text>
</g>
<!-- m_episodic_ep_EOS7 -->
<g id="node53" class="node">
<title>m_episodic_ep_EOS7</title>
<path fill="#fff2bf" stroke="#b38a00" stroke-width="1.2" d="M1170.91,-2386.19C1170.91,-2386.19 484.41,-2386.19 484.41,-2386.19 478.41,-2386.19 472.41,-2380.19 472.41,-2374.19 472.41,-2374.19 472.41,-2362.19 472.41,-2362.19 472.41,-2356.19 478.41,-2350.19 484.41,-2350.19 484.41,-2350.19 1170.91,-2350.19 1170.91,-2350.19 1176.91,-2350.19 1182.91,-2356.19 1182.91,-2362.19 1182.91,-2362.19 1182.91,-2374.19 1182.91,-2374.19 1182.91,-2380.19 1176.91,-2386.19 1170.91,-2386.19"/>
<text text-anchor="middle" x="827.66" y="-2364.31" font-family="Helvetica,sans-Serif" font-size="10.00">E: 2023&#45;05&#45;21\nAssistant recommended popular\ngelato shops in Rome including\nGelateria del Teatro, Giolitti,\nFatamorgana, San Crispino, and La\nRomana.</text>
</g>
<!-- e_v6ent_ad07057ea8894b489269ea10&#45;&gt;m_episodic_ep_EOS7 -->
<g id="edge48" class="edge">
<title>e_v6ent_ad07057ea8894b489269ea10&#45;&gt;m_episodic_ep_EOS7</title>
<path fill="none" stroke="#5f8dd3" d="M177.24,-1348.3C185.7,-1468.61 239.09,-2152.32 370.04,-2305.19 456.51,-2406.14 623.01,-2402.61 729.28,-2387.68"/>
<polygon fill="#5f8dd3" stroke="#5f8dd3" points="729.52,-2389.59 734.69,-2386.9 728.97,-2385.78 729.52,-2389.59"/>
<text text-anchor="middle" x="401.16" y="-2352.47" font-family="Helvetica,sans-Serif" font-size="8.00">APPEARS_IN</text>
</g>
<!-- m_episodic_ep_JN84 -->
<g id="node54" class="node">
<title>m_episodic_ep_JN84</title>
<path fill="#fff2bf" stroke="#b38a00" stroke-width="1.2" d="M981.16,-2325.19C981.16,-2325.19 674.16,-2325.19 674.16,-2325.19 668.16,-2325.19 662.16,-2319.19 662.16,-2313.19 662.16,-2313.19 662.16,-2301.19 662.16,-2301.19 662.16,-2295.19 668.16,-2289.19 674.16,-2289.19 674.16,-2289.19 981.16,-2289.19 981.16,-2289.19 987.16,-2289.19 993.16,-2295.19 993.16,-2301.19 993.16,-2301.19 993.16,-2313.19 993.16,-2313.19 993.16,-2319.19 987.16,-2325.19 981.16,-2325.19"/>
<text text-anchor="middle" x="827.66" y="-2303.31" font-family="Helvetica,sans-Serif" font-size="10.00">E: 2023&#45;05&#45;21\nUser asked for gelato shop\nrecommendations in Rome.</text>
</g>
<!-- e_v6ent_ad07057ea8894b489269ea10&#45;&gt;m_episodic_ep_JN84 -->
<g id="edge49" class="edge">
<title>e_v6ent_ad07057ea8894b489269ea10&#45;&gt;m_episodic_ep_JN84</title>
<path fill="none" stroke="#5f8dd3" d="M177.48,-1348.31C187.16,-1464.4 245.63,-2103.2 370.04,-2245.19 457.48,-2344.99 623.29,-2341.5 729.21,-2326.66"/>
<polygon fill="#5f8dd3" stroke="#5f8dd3" points="729.43,-2328.57 734.6,-2325.89 728.89,-2324.76 729.43,-2328.57"/>
<text text-anchor="middle" x="401.16" y="-2292" font-family="Helvetica,sans-Serif" font-size="8.00">APPEARS_IN</text>
</g>
<!-- m_episodic_ep_LBD1 -->
<g id="node55" class="node">
<title>m_episodic_ep_LBD1</title>
<path fill="#fff2bf" stroke="#b38a00" stroke-width="1.2" d="M1160.04,-2264.19C1160.04,-2264.19 495.29,-2264.19 495.29,-2264.19 489.29,-2264.19 483.29,-2258.19 483.29,-2252.19 483.29,-2252.19 483.29,-2240.19 483.29,-2240.19 483.29,-2234.19 489.29,-2228.19 495.29,-2228.19 495.29,-2228.19 1160.04,-2228.19 1160.04,-2228.19 1166.04,-2228.19 1172.04,-2234.19 1172.04,-2240.19 1172.04,-2240.19 1172.04,-2252.19 1172.04,-2252.19 1172.04,-2258.19 1166.04,-2264.19 1160.04,-2264.19"/>
<text text-anchor="middle" x="827.66" y="-2242.31" font-family="Helvetica,sans-Serif" font-size="10.00">E: 2023&#45;05&#45;21\nAssistant shared tips for visiting\nRome including walking shoes,\ntiming, dress code, safety,\ntransportation, gelato, and the\nTrevi Fou...</text>
</g>
<!-- e_v6ent_ad07057ea8894b489269ea10&#45;&gt;m_episodic_ep_LBD1 -->
<g id="edge50" class="edge">
<title>e_v6ent_ad07057ea8894b489269ea10&#45;&gt;m_episodic_ep_LBD1</title>
<path fill="none" stroke="#5f8dd3" d="M177.78,-1348.58C188.85,-1460.91 252.34,-2054.08 370.04,-2185.19 458.52,-2283.76 623.62,-2280.32 729.18,-2265.61"/>
<polygon fill="#5f8dd3" stroke="#5f8dd3" points="729.38,-2267.52 734.55,-2264.84 728.83,-2263.71 729.38,-2267.52"/>
<text text-anchor="middle" x="401.16" y="-2231.49" font-family="Helvetica,sans-Serif" font-size="8.00">APPEARS_IN</text>
</g>
<!-- e_v6ent_865162e16bd6455f9c7f3037 -->
<g id="node2" class="node">
<title>e_v6ent_865162e16bd6455f9c7f3037</title>
<ellipse fill="#dff4df" stroke="#4a8f4a" stroke-width="1.2" cx="175.02" cy="-1208.19" rx="75.15" ry="18"/>
<text text-anchor="middle" x="175.02" y="-1204.31" font-family="Helvetica,sans-Serif" font-size="10.00">Vatican\n(Location, d=14)</text>
</g>
<!-- m_episodic_ep_FDEU -->
<g id="node15" class="node">
<title>m_episodic_ep_FDEU</title>
<path fill="#fff2bf" stroke="#b38a00" stroke-width="1.2" d="M1035.16,-1471.19C1035.16,-1471.19 620.16,-1471.19 620.16,-1471.19 614.16,-1471.19 608.16,-1465.19 608.16,-1459.19 608.16,-1459.19 608.16,-1447.19 608.16,-1447.19 608.16,-1441.19 614.16,-1435.19 620.16,-1435.19 620.16,-1435.19 1035.16,-1435.19 1035.16,-1435.19 1041.16,-1435.19 1047.16,-1441.19 1047.16,-1447.19 1047.16,-1447.19 1047.16,-1459.19 1047.16,-1459.19 1047.16,-1465.19 1041.16,-1471.19 1035.16,-1471.19"/>
<text text-anchor="middle" x="827.66" y="-1449.31" font-family="Helvetica,sans-Serif" font-size="10.00">E: 2023&#45;05&#45;21\nAssistant described the\nsignificance of the Vatican and\nmain attractions inside.</text>
</g>
<!-- e_v6ent_865162e16bd6455f9c7f3037&#45;&gt;m_episodic_ep_FDEU -->
<g id="edge38" class="edge">
<title>e_v6ent_865162e16bd6455f9c7f3037&#45;&gt;m_episodic_ep_FDEU</title>
<path fill="none" stroke="#5f8dd3" d="M248.08,-1203.52C281.22,-1205.42 318.35,-1213.97 342.04,-1239.19 411.94,-1313.6 293.57,-1399.54 370.04,-1467.19 389.57,-1484.47 509.53,-1480.3 621.58,-1472.16"/>
<polygon fill="#5f8dd3" stroke="#5f8dd3" points="621.41,-1474.1 626.76,-1471.78 621.13,-1470.26 621.41,-1474.1"/>
<text text-anchor="middle" x="401.16" y="-1480.05" font-family="Helvetica,sans-Serif" font-size="8.00">APPEARS_IN</text>
</g>
<!-- e_v6ent_865162e16bd6455f9c7f3037&#45;&gt;m_episodic_ep_VT1U -->
<g id="edge34" class="edge">
<title>e_v6ent_865162e16bd6455f9c7f3037&#45;&gt;m_episodic_ep_VT1U</title>
<path fill="none" stroke="#5f8dd3" d="M246.92,-1202.56C280.83,-1204 318.96,-1212.43 342.04,-1239.19 396.72,-1302.59 324.19,-1922.13 370.04,-1992.19 386.85,-2017.89 413.35,-1998.01 432.29,-2022.19 469.54,-2069.74 414.97,-2115.24 460.29,-2155.19 535.72,-2221.69 657.1,-2217.69 739.28,-2204.78"/>
<polygon fill="#5f8dd3" stroke="#5f8dd3" points="739.5,-2206.7 744.62,-2203.92 738.89,-2202.9 739.5,-2206.7"/>
<text text-anchor="middle" x="401.16" y="-2023.59" font-family="Helvetica,sans-Serif" font-size="8.00">APPEARS_IN</text>
</g>
<!-- e_v6ent_865162e16bd6455f9c7f3037&#45;&gt;m_episodic_ep_QKUF -->
<g id="edge31" class="edge">
<title>e_v6ent_865162e16bd6455f9c7f3037&#45;&gt;m_episodic_ep_QKUF</title>
<path fill="none" stroke="#5f8dd3" d="M247.21,-1202.7C280.97,-1204.21 318.9,-1212.68 342.04,-1239.19 383.74,-1286.96 335,-1756.34 370.04,-1809.19 387.01,-1834.79 414.55,-1814.11 432.29,-1839.19 465.2,-1885.73 419.42,-2054.44 460.29,-2094.19 534.89,-2166.76 663.13,-2159.04 746.39,-2143.88"/>
<polygon fill="#5f8dd3" stroke="#5f8dd3" points="746.51,-2145.82 751.56,-2142.91 745.8,-2142.03 746.51,-2145.82"/>
<text text-anchor="middle" x="401.16" y="-1840.59" font-family="Helvetica,sans-Serif" font-size="8.00">APPEARS_IN</text>
</g>
<!-- m_episodic_ep_BB6N -->
<g id="node42" class="node">
<title>m_episodic_ep_BB6N</title>
<path fill="#fff2bf" stroke="#b38a00" stroke-width="1.2" d="M1020.16,-2020.19C1020.16,-2020.19 635.16,-2020.19 635.16,-2020.19 629.16,-2020.19 623.16,-2014.19 623.16,-2008.19 623.16,-2008.19 623.16,-1996.19 623.16,-1996.19 623.16,-1990.19 629.16,-1984.19 635.16,-1984.19 635.16,-1984.19 1020.16,-1984.19 1020.16,-1984.19 1026.16,-1984.19 1032.16,-1990.19 1032.16,-1996.19 1032.16,-1996.19 1032.16,-2008.19 1032.16,-2008.19 1032.16,-2014.19 1026.16,-2020.19 1020.16,-2020.19"/>
<text text-anchor="middle" x="827.66" y="-1998.31" font-family="Helvetica,sans-Serif" font-size="10.00">E: 2023&#45;05&#45;21\nAssistant explained souvenir shops\nnear the Vatican and what they\nsell.</text>
</g>
<!-- e_v6ent_865162e16bd6455f9c7f3037&#45;&gt;m_episodic_ep_BB6N -->
<g id="edge32" class="edge">
<title>e_v6ent_865162e16bd6455f9c7f3037&#45;&gt;m_episodic_ep_BB6N</title>
<path fill="none" stroke="#5f8dd3" d="M247.17,-1202.73C280.92,-1204.26 318.85,-1212.72 342.04,-1239.19 380.9,-1283.54 337.36,-1720.1 370.04,-1769.19 387.05,-1794.75 413.92,-1774.57 432.29,-1799.19 478.87,-1861.61 403.09,-1919.32 460.29,-1972.19 535.39,-2041.6 660.03,-2035.87 742.75,-2021.87"/>
<polygon fill="#5f8dd3" stroke="#5f8dd3" points="743.05,-2023.77 748.14,-2020.93 742.39,-2019.98 743.05,-2023.77"/>
<text text-anchor="middle" x="401.16" y="-1800.59" font-family="Helvetica,sans-Serif" font-size="8.00">APPEARS_IN</text>
</g>
<!-- m_episodic_ep_THG5 -->
<g id="node43" class="node">
<title>m_episodic_ep_THG5</title>
<path fill="#fff2bf" stroke="#b38a00" stroke-width="1.2" d="M977.41,-1959.19C977.41,-1959.19 677.91,-1959.19 677.91,-1959.19 671.91,-1959.19 665.91,-1953.19 665.91,-1947.19 665.91,-1947.19 665.91,-1935.19 665.91,-1935.19 665.91,-1929.19 671.91,-1923.19 677.91,-1923.19 677.91,-1923.19 977.41,-1923.19 977.41,-1923.19 983.41,-1923.19 989.41,-1929.19 989.41,-1935.19 989.41,-1935.19 989.41,-1947.19 989.41,-1947.19 989.41,-1953.19 983.41,-1959.19 977.41,-1959.19"/>
<text text-anchor="middle" x="827.66" y="-1937.31" font-family="Helvetica,sans-Serif" font-size="10.00">E: 2023&#45;05&#45;21\nUser asked about souvenir shops\naround the Vatican.</text>
</g>
<!-- e_v6ent_865162e16bd6455f9c7f3037&#45;&gt;m_episodic_ep_THG5 -->
<g id="edge33" class="edge">
<title>e_v6ent_865162e16bd6455f9c7f3037&#45;&gt;m_episodic_ep_THG5</title>
<path fill="none" stroke="#5f8dd3" d="M247.12,-1202.77C280.86,-1204.31 318.79,-1212.77 342.04,-1239.19 414.09,-1321.07 309.41,-1638.52 370.04,-1729.19 387.11,-1754.72 413.65,-1734.77 432.29,-1759.19 473.96,-1813.79 409.34,-1865.12 460.29,-1911.19 535.57,-1979.26 658.7,-1974.33 741.18,-1960.84"/>
<polygon fill="#5f8dd3" stroke="#5f8dd3" points="741.45,-1962.74 746.55,-1959.93 740.81,-1958.95 741.45,-1962.74"/>
<text text-anchor="middle" x="401.16" y="-1760.59" font-family="Helvetica,sans-Serif" font-size="8.00">APPEARS_IN</text>
</g>
<!-- m_episodic_ep_KWL3 -->
<g id="node44" class="node">
<title>m_episodic_ep_KWL3</title>
<path fill="#fff2bf" stroke="#b38a00" stroke-width="1.2" d="M994.66,-1837.19C994.66,-1837.19 660.66,-1837.19 660.66,-1837.19 654.66,-1837.19 648.66,-1831.19 648.66,-1825.19 648.66,-1825.19 648.66,-1813.19 648.66,-1813.19 648.66,-1807.19 654.66,-1801.19 660.66,-1801.19 660.66,-1801.19 994.66,-1801.19 994.66,-1801.19 1000.66,-1801.19 1006.66,-1807.19 1006.66,-1813.19 1006.66,-1813.19 1006.66,-1825.19 1006.66,-1825.19 1006.66,-1831.19 1000.66,-1837.19 994.66,-1837.19"/>
<text text-anchor="middle" x="827.66" y="-1815.31" font-family="Helvetica,sans-Serif" font-size="10.00">E: 2023&#45;05&#45;21\nUser asked for restaurant\nrecommendations near the Vatican.</text>
</g>
<!-- e_v6ent_865162e16bd6455f9c7f3037&#45;&gt;m_episodic_ep_KWL3 -->
<g id="edge35" class="edge">
<title>e_v6ent_865162e16bd6455f9c7f3037&#45;&gt;m_episodic_ep_KWL3</title>
<path fill="none" stroke="#5f8dd3" d="M247.41,-1202.91C281.01,-1204.53 318.74,-1213.02 342.04,-1239.19 402.18,-1306.73 320.29,-1569.66 370.04,-1645.19 387.15,-1671.17 412.96,-1652.81 432.29,-1677.19 464.17,-1717.39 421.17,-1755.99 460.29,-1789.19 535.89,-1853.36 654.69,-1850.68 736.4,-1838.67"/>
<polygon fill="#5f8dd3" stroke="#5f8dd3" points="736.55,-1840.59 741.7,-1837.86 735.98,-1836.78 736.55,-1840.59"/>
<text text-anchor="middle" x="401.16" y="-1678.59" font-family="Helvetica,sans-Serif" font-size="8.00">APPEARS_IN</text>
</g>
<!-- m_episodic_ep_CZ8G -->
<g id="node45" class="node">
<title>m_episodic_ep_CZ8G</title>
<path fill="#fff2bf" stroke="#b38a00" stroke-width="1.2" d="M1083.16,-1776.19C1083.16,-1776.19 572.16,-1776.19 572.16,-1776.19 566.16,-1776.19 560.16,-1770.19 560.16,-1764.19 560.16,-1764.19 560.16,-1752.19 560.16,-1752.19 560.16,-1746.19 566.16,-1740.19 572.16,-1740.19 572.16,-1740.19 1083.16,-1740.19 1083.16,-1740.19 1089.16,-1740.19 1095.16,-1746.19 1095.16,-1752.19 1095.16,-1752.19 1095.16,-1764.19 1095.16,-1764.19 1095.16,-1770.19 1089.16,-1776.19 1083.16,-1776.19"/>
<text text-anchor="middle" x="827.66" y="-1754.31" font-family="Helvetica,sans-Serif" font-size="10.00">E: 2023&#45;05&#45;21\nAssistant recommended seeing the\nSistine Chapel first and booking a\ntour in advance at the Vatican.</text>
</g>
<!-- e_v6ent_865162e16bd6455f9c7f3037&#45;&gt;m_episodic_ep_CZ8G -->
<g id="edge36" class="edge">
<title>e_v6ent_865162e16bd6455f9c7f3037&#45;&gt;m_episodic_ep_CZ8G</title>
<path fill="none" stroke="#5f8dd3" d="M247.31,-1203C280.88,-1204.64 318.62,-1213.13 342.04,-1239.19 395.38,-1298.54 327.9,-1529.42 370.04,-1597.19 387.03,-1624.52 412.5,-1608.8 432.29,-1634.19 459.08,-1668.57 426.43,-1700.73 460.29,-1728.19 535.61,-1789.29 650.63,-1788.42 731.66,-1777.62"/>
<polygon fill="#5f8dd3" stroke="#5f8dd3" points="731.72,-1779.55 736.91,-1776.89 731.2,-1775.74 731.72,-1779.55"/>
<text text-anchor="middle" x="401.16" y="-1635.59" font-family="Helvetica,sans-Serif" font-size="8.00">APPEARS_IN</text>
</g>
<!-- m_episodic_ep_EU44 -->
<g id="node46" class="node">
<title>m_episodic_ep_EU44</title>
<path fill="#fff2bf" stroke="#b38a00" stroke-width="1.2" d="M1055.79,-1715.19C1055.79,-1715.19 599.54,-1715.19 599.54,-1715.19 593.54,-1715.19 587.54,-1709.19 587.54,-1703.19 587.54,-1703.19 587.54,-1691.19 587.54,-1691.19 587.54,-1685.19 593.54,-1679.19 599.54,-1679.19 599.54,-1679.19 1055.79,-1679.19 1055.79,-1679.19 1061.79,-1679.19 1067.79,-1685.19 1067.79,-1691.19 1067.79,-1691.19 1067.79,-1703.19 1067.79,-1703.19 1067.79,-1709.19 1061.79,-1715.19 1055.79,-1715.19"/>
<text text-anchor="middle" x="827.66" y="-1693.31" font-family="Helvetica,sans-Serif" font-size="10.00">E: 2023&#45;05&#45;21\nUser asked for recommendations on\nspecific areas or exhibits to see\nfirst in the Vatican.</text>
</g>
<!-- e_v6ent_865162e16bd6455f9c7f3037&#45;&gt;m_episodic_ep_EU44 -->
<g id="edge37" class="edge">
<title>e_v6ent_865162e16bd6455f9c7f3037&#45;&gt;m_episodic_ep_EU44</title>
<path fill="none" stroke="#5f8dd3" d="M247.8,-1203.37C281.08,-1205.19 318.4,-1213.72 342.04,-1239.19 380.66,-1280.82 350.57,-1439.84 370.04,-1493.19 387.08,-1539.91 410.15,-1541.65 432.29,-1586.19 449.24,-1620.3 430.19,-1643.84 460.29,-1667.19 535.2,-1725.31 646.56,-1726.07 726.84,-1716.48"/>
<polygon fill="#5f8dd3" stroke="#5f8dd3" points="726.81,-1718.42 732.03,-1715.83 726.33,-1714.6 726.81,-1718.42"/>
<text text-anchor="middle" x="401.16" y="-1587.59" font-family="Helvetica,sans-Serif" font-size="8.00">APPEARS_IN</text>
</g>
<!-- e_v6ent_4058cd532f2342e5b8b126ca -->
<g id="node3" class="node">
<title>e_v6ent_4058cd532f2342e5b8b126ca</title>
<ellipse fill="#dff4df" stroke="#4a8f4a" stroke-width="1.2" cx="175.02" cy="-1147.19" rx="148.81" ry="18"/>
<text text-anchor="middle" x="175.02" y="-1143.31" font-family="Helvetica,sans-Serif" font-size="10.00">Natural Park of Moncayo\nMountain\n(Location, d=13)</text>
</g>
<!-- m_episodic_ep_QXGA -->
<g id="node26" class="node">
<title>m_episodic_ep_QXGA</title>
<path fill="#fff2bf" stroke="#b38a00" stroke-width="1.2" d="M1112.79,-1654.19C1112.79,-1654.19 542.54,-1654.19 542.54,-1654.19 536.54,-1654.19 530.54,-1648.19 530.54,-1642.19 530.54,-1642.19 530.54,-1630.19 530.54,-1630.19 530.54,-1624.19 536.54,-1618.19 542.54,-1618.19 542.54,-1618.19 1112.79,-1618.19 1112.79,-1618.19 1118.79,-1618.19 1124.79,-1624.19 1124.79,-1630.19 1124.79,-1630.19 1124.79,-1642.19 1124.79,-1642.19 1124.79,-1648.19 1118.79,-1654.19 1112.79,-1654.19"/>
<text text-anchor="middle" x="827.66" y="-1632.31" font-family="Helvetica,sans-Serif" font-size="10.00">E: 2023&#45;05&#45;25\nAssistant expressed hope that the\nuser has a wonderful time at the\nNatural Park of Moncayo mountain\nin Aragón.</text>
</g>
<!-- e_v6ent_4058cd532f2342e5b8b126ca&#45;&gt;m_episodic_ep_QXGA -->
<g id="edge12" class="edge">
<title>e_v6ent_4058cd532f2342e5b8b126ca&#45;&gt;m_episodic_ep_QXGA</title>
<path fill="none" stroke="#5f8dd3" d="M308.54,-1155.25C321.12,-1160.66 332.65,-1168.09 342.04,-1178.19 418.16,-1260.08 305.38,-1336.97 370.04,-1428.19 387.8,-1453.24 413.59,-1433.82 432.29,-1458.19 473.03,-1511.3 410.52,-1561.41 460.29,-1606.19 535.61,-1673.97 658.45,-1669.21 740.88,-1655.82"/>
<polygon fill="#5f8dd3" stroke="#5f8dd3" points="741.13,-1657.73 746.24,-1654.92 740.5,-1653.93 741.13,-1657.73"/>
<text text-anchor="middle" x="401.16" y="-1459.59" font-family="Helvetica,sans-Serif" font-size="8.00">APPEARS_IN</text>
</g>
<!-- m_episodic_ep_KWWW -->
<g id="node27" class="node">
<title>m_episodic_ep_KWWW</title>
<path fill="#fff2bf" stroke="#b38a00" stroke-width="1.2" d="M1175.04,-1593.19C1175.04,-1593.19 480.29,-1593.19 480.29,-1593.19 474.29,-1593.19 468.29,-1587.19 468.29,-1581.19 468.29,-1581.19 468.29,-1569.19 468.29,-1569.19 468.29,-1563.19 474.29,-1557.19 480.29,-1557.19 480.29,-1557.19 1175.04,-1557.19 1175.04,-1557.19 1181.04,-1557.19 1187.04,-1563.19 1187.04,-1569.19 1187.04,-1569.19 1187.04,-1581.19 1187.04,-1581.19 1187.04,-1587.19 1181.04,-1593.19 1175.04,-1593.19"/>
<text text-anchor="middle" x="827.66" y="-1571.31" font-family="Helvetica,sans-Serif" font-size="10.00">E: 2023&#45;05&#45;25\nUser expressed excitement about\nplanning a visit to the Natural\nPark of Moncayo mountain in Aragón\nand appreciated the\nrecommendations.</text>
</g>
<!-- e_v6ent_4058cd532f2342e5b8b126ca&#45;&gt;m_episodic_ep_KWWW -->
<g id="edge13" class="edge">
<title>e_v6ent_4058cd532f2342e5b8b126ca&#45;&gt;m_episodic_ep_KWWW</title>
<path fill="none" stroke="#5f8dd3" d="M308.34,-1155.45C320.95,-1160.82 332.55,-1168.19 342.04,-1178.19 407.14,-1246.82 314.55,-1312.57 370.04,-1389.19 388.05,-1414.06 413.21,-1395.12 432.29,-1419.19 467.92,-1464.15 417.04,-1507.49 460.29,-1545.19 535.86,-1611.06 656.63,-1607.39 738.68,-1594.72"/>
<polygon fill="#5f8dd3" stroke="#5f8dd3" points="738.89,-1596.63 744.02,-1593.87 738.28,-1592.83 738.89,-1596.63"/>
<text text-anchor="middle" x="401.16" y="-1420.59" font-family="Helvetica,sans-Serif" font-size="8.00">APPEARS_IN</text>
</g>
<!-- m_episodic_ep_A4SQ -->
<g id="node28" class="node">
<title>m_episodic_ep_A4SQ</title>
<path fill="#fff2bf" stroke="#b38a00" stroke-width="1.2" d="M1162.29,-1532.19C1162.29,-1532.19 493.04,-1532.19 493.04,-1532.19 487.04,-1532.19 481.04,-1526.19 481.04,-1520.19 481.04,-1520.19 481.04,-1508.19 481.04,-1508.19 481.04,-1502.19 487.04,-1496.19 493.04,-1496.19 493.04,-1496.19 1162.29,-1496.19 1162.29,-1496.19 1168.29,-1496.19 1174.29,-1502.19 1174.29,-1508.19 1174.29,-1508.19 1174.29,-1520.19 1174.29,-1520.19 1174.29,-1526.19 1168.29,-1532.19 1162.29,-1532.19"/>
<text text-anchor="middle" x="827.66" y="-1510.31" font-family="Helvetica,sans-Serif" font-size="10.00">E: 2023&#45;05&#45;25\nUser considered renting a rural\ncottage near the Natural Park of\nMoncayo mountain in Aragón and\nasked for specific\nrecommendations.</text>
</g>
<!-- e_v6ent_4058cd532f2342e5b8b126ca&#45;&gt;m_episodic_ep_A4SQ -->
<g id="edge14" class="edge">
<title>e_v6ent_4058cd532f2342e5b8b126ca&#45;&gt;m_episodic_ep_A4SQ</title>
<path fill="none" stroke="#5f8dd3" d="M307.64,-1155.56C320.47,-1160.89 332.3,-1168.23 342.04,-1178.19 396.16,-1233.59 323.69,-1288.14 370.04,-1350.19 388.42,-1374.79 412.68,-1356.55 432.29,-1380.19 462.84,-1417.03 423.51,-1453.54 460.29,-1484.19 535.75,-1547.08 652.92,-1545.19 734.36,-1533.68"/>
<polygon fill="#5f8dd3" stroke="#5f8dd3" points="734.48,-1535.61 739.64,-1532.91 733.92,-1531.8 734.48,-1535.61"/>
<text text-anchor="middle" x="401.16" y="-1381.59" font-family="Helvetica,sans-Serif" font-size="8.00">APPEARS_IN</text>
</g>
<!-- m_episodic_ep_Q4I2 -->
<g id="node29" class="node">
<title>m_episodic_ep_Q4I2</title>
<path fill="#fff2bf" stroke="#b38a00" stroke-width="1.2" d="M1067.04,-1410.19C1067.04,-1410.19 588.29,-1410.19 588.29,-1410.19 582.29,-1410.19 576.29,-1404.19 576.29,-1398.19 576.29,-1398.19 576.29,-1386.19 576.29,-1386.19 576.29,-1380.19 582.29,-1374.19 588.29,-1374.19 588.29,-1374.19 1067.04,-1374.19 1067.04,-1374.19 1073.04,-1374.19 1079.04,-1380.19 1079.04,-1386.19 1079.04,-1386.19 1079.04,-1398.19 1079.04,-1398.19 1079.04,-1404.19 1073.04,-1410.19 1067.04,-1410.19"/>
<text text-anchor="middle" x="827.66" y="-1388.31" font-family="Helvetica,sans-Serif" font-size="10.00">E: 2023&#45;05&#45;25\nUser asked for accommodation\nadvice near the Natural Park of\nMoncayo mountain in Aragón.</text>
</g>
<!-- e_v6ent_4058cd532f2342e5b8b126ca&#45;&gt;m_episodic_ep_Q4I2 -->
<g id="edge15" class="edge">
<title>e_v6ent_4058cd532f2342e5b8b126ca&#45;&gt;m_episodic_ep_Q4I2</title>
<path fill="none" stroke="#5f8dd3" d="M304.76,-1156.2C318.43,-1161.36 331.25,-1168.48 342.04,-1178.19 374.43,-1207.35 341.77,-1239.01 370.04,-1272.19 389.95,-1295.57 410.71,-1280.34 432.29,-1302.19 452.97,-1323.13 436.13,-1345.38 460.29,-1362.19 531.73,-1411.9 631.04,-1417.16 708.24,-1411.22"/>
<polygon fill="#5f8dd3" stroke="#5f8dd3" points="708.34,-1413.14 713.66,-1410.78 708.02,-1409.31 708.34,-1413.14"/>
<text text-anchor="middle" x="401.16" y="-1303.59" font-family="Helvetica,sans-Serif" font-size="8.00">APPEARS_IN</text>
</g>
<!-- m_episodic_ep_CV7X -->
<g id="node30" class="node">
<title>m_episodic_ep_CV7X</title>
<path fill="#fff2bf" stroke="#b38a00" stroke-width="1.2" d="M1128.16,-1349.19C1128.16,-1349.19 527.16,-1349.19 527.16,-1349.19 521.16,-1349.19 515.16,-1343.19 515.16,-1337.19 515.16,-1337.19 515.16,-1325.19 515.16,-1325.19 515.16,-1319.19 521.16,-1313.19 527.16,-1313.19 527.16,-1313.19 1128.16,-1313.19 1128.16,-1313.19 1134.16,-1313.19 1140.16,-1319.19 1140.16,-1325.19 1140.16,-1325.19 1140.16,-1337.19 1140.16,-1337.19 1140.16,-1343.19 1134.16,-1349.19 1128.16,-1349.19"/>
<text text-anchor="middle" x="827.66" y="-1327.31" font-family="Helvetica,sans-Serif" font-size="10.00">E: 2023&#45;05&#45;25\nAssistant advised that spring and\nautumn are the best seasons to\nvisit the Natural Park of Moncayo\nmountain for hiking.</text>
</g>
<!-- e_v6ent_4058cd532f2342e5b8b126ca&#45;&gt;m_episodic_ep_CV7X -->
<g id="edge16" class="edge">
<title>e_v6ent_4058cd532f2342e5b8b126ca&#45;&gt;m_episodic_ep_CV7X</title>
<path fill="none" stroke="#5f8dd3" d="M300.16,-1157.19C315.19,-1162.1 329.59,-1168.88 342.04,-1178.19 364,-1194.62 350.43,-1214 370.04,-1233.19 391.99,-1254.67 408.65,-1243.58 432.29,-1263.19 448.43,-1276.58 441.97,-1290.97 460.29,-1301.19 475.42,-1309.63 491.46,-1316.61 508.05,-1322.36"/>
<polygon fill="#5f8dd3" stroke="#5f8dd3" points="507.42,-1324.18 513.25,-1324.1 508.64,-1320.53 507.42,-1324.18"/>
<text text-anchor="middle" x="401.16" y="-1264.59" font-family="Helvetica,sans-Serif" font-size="8.00">APPEARS_IN</text>
</g>
<!-- m_episodic_ep_W4X1 -->
<g id="node31" class="node">
<title>m_episodic_ep_W4X1</title>
<path fill="#fff2bf" stroke="#b38a00" stroke-width="1.2" d="M1066.66,-1288.19C1066.66,-1288.19 588.66,-1288.19 588.66,-1288.19 582.66,-1288.19 576.66,-1282.19 576.66,-1276.19 576.66,-1276.19 576.66,-1264.19 576.66,-1264.19 576.66,-1258.19 582.66,-1252.19 588.66,-1252.19 588.66,-1252.19 1066.66,-1252.19 1066.66,-1252.19 1072.66,-1252.19 1078.66,-1258.19 1078.66,-1264.19 1078.66,-1264.19 1078.66,-1276.19 1078.66,-1276.19 1078.66,-1282.19 1072.66,-1288.19 1066.66,-1288.19"/>
<text text-anchor="middle" x="827.66" y="-1266.31" font-family="Helvetica,sans-Serif" font-size="10.00">E: 2023&#45;05&#45;25\nUser asked for the best time of\nyear to visit the Natural Park of\nMoncayo mountain for hiking.</text>
</g>
<!-- e_v6ent_4058cd532f2342e5b8b126ca&#45;&gt;m_episodic_ep_W4X1 -->
<g id="edge17" class="edge">
<title>e_v6ent_4058cd532f2342e5b8b126ca&#45;&gt;m_episodic_ep_W4X1</title>
<path fill="none" stroke="#5f8dd3" d="M275.1,-1160.88C297.43,-1165.29 320.8,-1170.96 342.04,-1178.19 352.69,-1181.81 422.38,-1218.84 432.29,-1224.19 444.9,-1231 446.6,-1235.95 460.29,-1240.19 495.01,-1250.94 532.41,-1258.4 569.59,-1263.49"/>
<polygon fill="#5f8dd3" stroke="#5f8dd3" points="569.32,-1265.4 575.03,-1264.21 569.83,-1261.58 569.32,-1265.4"/>
<text text-anchor="middle" x="401.16" y="-1225.59" font-family="Helvetica,sans-Serif" font-size="8.00">APPEARS_IN</text>
</g>
<!-- m_episodic_ep_FHZJ -->
<g id="node32" class="node">
<title>m_episodic_ep_FHZJ</title>
<path fill="#fff2bf" stroke="#b38a00" stroke-width="1.2" d="M1100.04,-1227.19C1100.04,-1227.19 555.29,-1227.19 555.29,-1227.19 549.29,-1227.19 543.29,-1221.19 543.29,-1215.19 543.29,-1215.19 543.29,-1203.19 543.29,-1203.19 543.29,-1197.19 549.29,-1191.19 555.29,-1191.19 555.29,-1191.19 1100.04,-1191.19 1100.04,-1191.19 1106.04,-1191.19 1112.04,-1197.19 1112.04,-1203.19 1112.04,-1203.19 1112.04,-1215.19 1112.04,-1215.19 1112.04,-1221.19 1106.04,-1227.19 1100.04,-1227.19"/>
<text text-anchor="middle" x="827.66" y="-1205.31" font-family="Helvetica,sans-Serif" font-size="10.00">E: 2023&#45;05&#45;25\nAssistant recommended the GR&#45;90\nhiking trail in the Natural Park\nof Moncayo mountain for amazing\nviews.</text>
</g>
<!-- e_v6ent_4058cd532f2342e5b8b126ca&#45;&gt;m_episodic_ep_FHZJ -->
<g id="edge18" class="edge">
<title>e_v6ent_4058cd532f2342e5b8b126ca&#45;&gt;m_episodic_ep_FHZJ</title>
<path fill="none" stroke="#5f8dd3" d="M282.58,-1159.96C335.9,-1166.15 401.46,-1173.47 460.29,-1179.19 499.4,-1182.99 540.89,-1186.7 581.35,-1190.14"/>
<polygon fill="#5f8dd3" stroke="#5f8dd3" points="580.95,-1192.04 586.59,-1190.58 581.28,-1188.2 580.95,-1192.04"/>
<text text-anchor="middle" x="401.16" y="-1177.51" font-family="Helvetica,sans-Serif" font-size="8.00">APPEARS_IN</text>
</g>
<!-- m_episodic_ep_IWI1 -->
<g id="node33" class="node">
<title>m_episodic_ep_IWI1</title>
<path fill="#fff2bf" stroke="#b38a00" stroke-width="1.2" d="M1127.79,-1166.19C1127.79,-1166.19 527.54,-1166.19 527.54,-1166.19 521.54,-1166.19 515.54,-1160.19 515.54,-1154.19 515.54,-1154.19 515.54,-1142.19 515.54,-1142.19 515.54,-1136.19 521.54,-1130.19 527.54,-1130.19 527.54,-1130.19 1127.79,-1130.19 1127.79,-1130.19 1133.79,-1130.19 1139.79,-1136.19 1139.79,-1142.19 1139.79,-1142.19 1139.79,-1154.19 1139.79,-1154.19 1139.79,-1160.19 1133.79,-1166.19 1127.79,-1166.19"/>
<text text-anchor="middle" x="827.66" y="-1144.31" font-family="Helvetica,sans-Serif" font-size="10.00">E: 2023&#45;05&#45;25\nUser requested a recommendation\nfor the best hiking trail with\namazing views in the Natural Park\nof Moncayo mountain.</text>
</g>
<!-- e_v6ent_4058cd532f2342e5b8b126ca&#45;&gt;m_episodic_ep_IWI1 -->
<g id="edge19" class="edge">
<title>e_v6ent_4058cd532f2342e5b8b126ca&#45;&gt;m_episodic_ep_IWI1</title>
<path fill="none" stroke="#5f8dd3" d="M324.06,-1146.35C339.58,-1146.28 355.13,-1146.23 370.04,-1146.19 414.81,-1146.07 462.04,-1146.11 508.48,-1146.23"/>
<polygon fill="#5f8dd3" stroke="#5f8dd3" points="508.31,-1148.15 513.81,-1146.24 508.32,-1144.3 508.31,-1148.15"/>
<text text-anchor="middle" x="401.16" y="-1147.59" font-family="Helvetica,sans-Serif" font-size="8.00">APPEARS_IN</text>
</g>
<!-- e_v6ent_453b59e9cd664cfdb5d12488 -->
<g id="node4" class="node">
<title>e_v6ent_453b59e9cd664cfdb5d12488</title>
<ellipse fill="#dff4df" stroke="#4a8f4a" stroke-width="1.2" cx="175.02" cy="-903.19" rx="71.15" ry="18"/>
<text text-anchor="middle" x="175.02" y="-899.31" font-family="Helvetica,sans-Serif" font-size="10.00">Speyer\n(Location, d=7)</text>
</g>
<!-- m_episodic_ep_ZBFP -->
<g id="node19" class="node">
<title>m_episodic_ep_ZBFP</title>
<path fill="#fff2bf" stroke="#b38a00" stroke-width="1.2" d="M995.04,-68.19C995.04,-68.19 660.29,-68.19 660.29,-68.19 654.29,-68.19 648.29,-62.19 648.29,-56.19 648.29,-56.19 648.29,-44.19 648.29,-44.19 648.29,-38.19 654.29,-32.19 660.29,-32.19 660.29,-32.19 995.04,-32.19 995.04,-32.19 1001.04,-32.19 1007.04,-38.19 1007.04,-44.19 1007.04,-44.19 1007.04,-56.19 1007.04,-56.19 1007.04,-62.19 1001.04,-68.19 995.04,-68.19"/>
<text text-anchor="middle" x="827.66" y="-46.31" font-family="Helvetica,sans-Serif" font-size="10.00">E: 2023&#45;05&#45;28\nUser requested contact details of\nthe tourism board of Speyer</text>
</g>
<!-- e_v6ent_453b59e9cd664cfdb5d12488&#45;&gt;m_episodic_ep_ZBFP -->
<g id="edge22" class="edge">
<title>e_v6ent_453b59e9cd664cfdb5d12488&#45;&gt;m_episodic_ep_ZBFP</title>
<path fill="none" stroke="#5f8dd3" d="M242.53,-909.26C277.38,-908.54 317.76,-900.79 342.04,-873.19 382.38,-827.33 336.24,-375.07 370.04,-324.19 387.03,-298.61 414.29,-319.07 432.29,-294.19 488.25,-216.82 391.23,-147.12 460.29,-81.19 534.61,-10.23 660.33,-16.25 743.42,-30.5"/>
<polygon fill="#5f8dd3" stroke="#5f8dd3" points="743.08,-32.4 748.83,-31.46 743.75,-28.6 743.08,-32.4"/>
<text text-anchor="middle" x="401.16" y="-325.59" font-family="Helvetica,sans-Serif" font-size="8.00">APPEARS_IN</text>
</g>
<!-- m_semantic_sem_XDIB -->
<g id="node20" class="node">
<title>m_semantic_sem_XDIB</title>
<polygon fill="#dff7ff" stroke="#2f7f9f" stroke-width="1.2" points="924.16,-129.19 731.16,-129.19 731.16,-125.19 727.16,-125.19 727.16,-121.19 731.16,-121.19 731.16,-101.19 727.16,-101.19 727.16,-97.19 731.16,-97.19 731.16,-93.19 924.16,-93.19 924.16,-129.19"/>
<polyline fill="none" stroke="#2f7f9f" stroke-width="1.2" points="731.16,-125.19 735.16,-125.19 735.16,-121.19 731.16,-121.19"/>
<polyline fill="none" stroke="#2f7f9f" stroke-width="1.2" points="731.16,-101.19 735.16,-101.19 735.16,-97.19 731.16,-97.19"/>
<text text-anchor="middle" x="827.66" y="-107.31" font-family="Helvetica,sans-Serif" font-size="10.00">S: 2026&#45;06&#45;12\nTourism Board of Speyer</text>
</g>
<!-- e_v6ent_453b59e9cd664cfdb5d12488&#45;&gt;m_semantic_sem_XDIB -->
<g id="edge26" class="edge">
<title>e_v6ent_453b59e9cd664cfdb5d12488&#45;&gt;m_semantic_sem_XDIB</title>
<path fill="none" stroke="#9b6bd3" d="M242.8,-909.12C277.51,-908.3 317.67,-900.51 342.04,-873.19 406.07,-801.4 316.26,-520.95 370.04,-441.19 387.21,-415.72 414.62,-436.31 432.29,-411.19 466.85,-362.02 417.38,-184.27 460.29,-142.19 534.38,-69.51 662.15,-76.65 745.53,-91.53"/>
<polygon fill="#9b6bd3" stroke="#9b6bd3" points="744.95,-93.38 750.71,-92.48 745.65,-89.6 744.95,-93.38"/>
<text text-anchor="middle" x="401.16" y="-442.59" font-family="Helvetica,sans-Serif" font-size="8.00">DESCRIBED_BY</text>
</g>
<!-- m_episodic_ep_BHKF -->
<g id="node34" class="node">
<title>m_episodic_ep_BHKF</title>
<path fill="#fff2bf" stroke="#b38a00" stroke-width="1.2" d="M1055.04,-434.19C1055.04,-434.19 600.29,-434.19 600.29,-434.19 594.29,-434.19 588.29,-428.19 588.29,-422.19 588.29,-422.19 588.29,-410.19 588.29,-410.19 588.29,-404.19 594.29,-398.19 600.29,-398.19 600.29,-398.19 1055.04,-398.19 1055.04,-398.19 1061.04,-398.19 1067.04,-404.19 1067.04,-410.19 1067.04,-410.19 1067.04,-422.19 1067.04,-422.19 1067.04,-428.19 1061.04,-434.19 1055.04,-434.19"/>
<text text-anchor="middle" x="827.66" y="-412.31" font-family="Helvetica,sans-Serif" font-size="10.00">E: 2023&#45;05&#45;28\nUser inquired about upcoming\nsporting events in Speyer and\nlocal tourism board contact</text>
</g>
<!-- e_v6ent_453b59e9cd664cfdb5d12488&#45;&gt;m_episodic_ep_BHKF -->
<g id="edge20" class="edge">
<title>e_v6ent_453b59e9cd664cfdb5d12488&#45;&gt;m_episodic_ep_BHKF</title>
<path fill="none" stroke="#5f8dd3" d="M243.24,-908.75C277.65,-907.72 317.37,-899.85 342.04,-873.19 383.9,-827.94 334.65,-647.67 370.04,-597.19 387.67,-572.04 413.08,-591.16 432.29,-567.19 466.53,-524.45 418.86,-483.01 460.29,-447.19 535.2,-382.41 653.86,-384.76 735.74,-396.67"/>
<polygon fill="#5f8dd3" stroke="#5f8dd3" points="735.34,-398.55 741.06,-397.47 735.91,-394.75 735.34,-398.55"/>
<text text-anchor="middle" x="401.16" y="-598.59" font-family="Helvetica,sans-Serif" font-size="8.00">APPEARS_IN</text>
</g>
<!-- m_episodic_ep_HHLY -->
<g id="node35" class="node">
<title>m_episodic_ep_HHLY</title>
<path fill="#fff2bf" stroke="#b38a00" stroke-width="1.2" d="M1002.54,-556.19C1002.54,-556.19 652.79,-556.19 652.79,-556.19 646.79,-556.19 640.79,-550.19 640.79,-544.19 640.79,-544.19 640.79,-532.19 640.79,-532.19 640.79,-526.19 646.79,-520.19 652.79,-520.19 652.79,-520.19 1002.54,-520.19 1002.54,-520.19 1008.54,-520.19 1014.54,-526.19 1014.54,-532.19 1014.54,-532.19 1014.54,-544.19 1014.54,-544.19 1014.54,-550.19 1008.54,-556.19 1002.54,-556.19"/>
<text text-anchor="middle" x="827.66" y="-534.31" font-family="Helvetica,sans-Serif" font-size="10.00">E: 2023&#45;05&#45;28\nUser asked about transportation\noptions from Frankfurt to Speyer</text>
</g>
<!-- e_v6ent_453b59e9cd664cfdb5d12488&#45;&gt;m_episodic_ep_HHLY -->
<g id="edge21" class="edge">
<title>e_v6ent_453b59e9cd664cfdb5d12488&#45;&gt;m_episodic_ep_HHLY</title>
<path fill="none" stroke="#5f8dd3" d="M243.66,-908.33C277.75,-907.08 317.05,-899.15 342.04,-873.19 403.67,-809.15 317.6,-746.94 370.04,-675.19 388.16,-650.39 411.64,-667.92 432.29,-645.19 456.49,-618.54 431.65,-591 460.29,-569.19 533.87,-513.12 641.56,-510.6 721.16,-518.97"/>
<polygon fill="#5f8dd3" stroke="#5f8dd3" points="720.62,-520.84 726.3,-519.53 721.04,-517.02 720.62,-520.84"/>
<text text-anchor="middle" x="401.16" y="-676.59" font-family="Helvetica,sans-Serif" font-size="8.00">APPEARS_IN</text>
</g>
<!-- m_episodic_ep_AO8Y -->
<g id="node36" class="node">
<title>m_episodic_ep_AO8Y</title>
<path fill="#fff2bf" stroke="#b38a00" stroke-width="1.2" d="M1076.41,-678.19C1076.41,-678.19 578.91,-678.19 578.91,-678.19 572.91,-678.19 566.91,-672.19 566.91,-666.19 566.91,-666.19 566.91,-654.19 566.91,-654.19 566.91,-648.19 572.91,-642.19 578.91,-642.19 578.91,-642.19 1076.41,-642.19 1076.41,-642.19 1082.41,-642.19 1088.41,-648.19 1088.41,-654.19 1088.41,-654.19 1088.41,-666.19 1088.41,-666.19 1088.41,-672.19 1082.41,-678.19 1076.41,-678.19"/>
<text text-anchor="middle" x="827.66" y="-656.31" font-family="Helvetica,sans-Serif" font-size="10.00">E: 2023&#45;05&#45;28\nUser inquired about upcoming\nsporting events in Speyer and how\nvisitors can attend or participate</text>
</g>
<!-- e_v6ent_453b59e9cd664cfdb5d12488&#45;&gt;m_episodic_ep_AO8Y -->
<g id="edge23" class="edge">
<title>e_v6ent_453b59e9cd664cfdb5d12488&#45;&gt;m_episodic_ep_AO8Y</title>
<path fill="none" stroke="#5f8dd3" d="M244.82,-907.31C278.18,-905.58 316.46,-897.51 342.04,-873.19 381.73,-835.45 335.79,-795.93 370.04,-753.19 389.24,-729.22 407.85,-741.79 432.29,-723.19 447.33,-711.74 443.42,-699.72 460.29,-691.19 491.12,-675.59 525.3,-665.21 560.02,-658.53"/>
<polygon fill="#5f8dd3" stroke="#5f8dd3" points="559.97,-660.5 565.03,-657.6 559.27,-656.71 559.97,-660.5"/>
<text text-anchor="middle" x="401.16" y="-754.59" font-family="Helvetica,sans-Serif" font-size="8.00">APPEARS_IN</text>
</g>
<!-- m_semantic_sem_KZ93 -->
<g id="node37" class="node">
<title>m_semantic_sem_KZ93</title>
<polygon fill="#dff7ff" stroke="#2f7f9f" stroke-width="1.2" points="950.79,-617.19 704.54,-617.19 704.54,-613.19 700.54,-613.19 700.54,-609.19 704.54,-609.19 704.54,-589.19 700.54,-589.19 700.54,-585.19 704.54,-585.19 704.54,-581.19 950.79,-581.19 950.79,-617.19"/>
<polyline fill="none" stroke="#2f7f9f" stroke-width="1.2" points="704.54,-613.19 708.54,-613.19 708.54,-609.19 704.54,-609.19"/>
<polyline fill="none" stroke="#2f7f9f" stroke-width="1.2" points="704.54,-589.19 708.54,-589.19 708.54,-585.19 704.54,-585.19"/>
<text text-anchor="middle" x="827.66" y="-595.31" font-family="Helvetica,sans-Serif" font-size="10.00">S: 2026&#45;06&#45;12\nUpcoming Sporting Events in Speyer</text>
</g>
<!-- e_v6ent_453b59e9cd664cfdb5d12488&#45;&gt;m_semantic_sem_KZ93 -->
<g id="edge24" class="edge">
<title>e_v6ent_453b59e9cd664cfdb5d12488&#45;&gt;m_semantic_sem_KZ93</title>
<path fill="none" stroke="#9b6bd3" d="M244.14,-907.95C277.94,-906.51 316.83,-898.51 342.04,-873.19 392.66,-822.34 326.73,-771.4 370.04,-714.19 388.57,-689.7 410.25,-705.58 432.29,-684.19 451.68,-665.35 437.8,-645.19 460.29,-630.19 529.22,-584.19 622.47,-576.87 697.64,-580.83"/>
<polygon fill="#9b6bd3" stroke="#9b6bd3" points="697.28,-582.74 702.88,-581.14 697.5,-578.9 697.28,-582.74"/>
<text text-anchor="middle" x="401.16" y="-715.59" font-family="Helvetica,sans-Serif" font-size="8.00">DESCRIBED_BY</text>
</g>
<!-- m_semantic_sem_VJNQ -->
<g id="node38" class="node">
<title>m_semantic_sem_VJNQ</title>
<polygon fill="#dff7ff" stroke="#2f7f9f" stroke-width="1.2" points="977.04,-495.19 678.29,-495.19 678.29,-491.19 674.29,-491.19 674.29,-487.19 678.29,-487.19 678.29,-467.19 674.29,-467.19 674.29,-463.19 678.29,-463.19 678.29,-459.19 977.04,-459.19 977.04,-495.19"/>
<polyline fill="none" stroke="#2f7f9f" stroke-width="1.2" points="678.29,-491.19 682.29,-491.19 682.29,-487.19 678.29,-487.19"/>
<polyline fill="none" stroke="#2f7f9f" stroke-width="1.2" points="678.29,-467.19 682.29,-467.19 682.29,-463.19 678.29,-463.19"/>
<text text-anchor="middle" x="827.66" y="-473.31" font-family="Helvetica,sans-Serif" font-size="10.00">S: 2026&#45;06&#45;12\nTransportation Options from\nFrankfurt to Speyer</text>
</g>
<!-- e_v6ent_453b59e9cd664cfdb5d12488&#45;&gt;m_semantic_sem_VJNQ -->
<g id="edge25" class="edge">
<title>e_v6ent_453b59e9cd664cfdb5d12488&#45;&gt;m_semantic_sem_VJNQ</title>
<path fill="none" stroke="#9b6bd3" d="M243.49,-908.57C277.74,-907.44 317.25,-899.54 342.04,-873.19 414.71,-795.93 308.44,-722.53 370.04,-636.19 387.87,-611.19 412.5,-629.68 432.29,-606.19 461.47,-571.54 425.31,-536.97 460.29,-508.19 535.08,-446.65 649.92,-447.17 731.06,-457.8"/>
<polygon fill="#9b6bd3" stroke="#9b6bd3" points="730.62,-459.68 736.33,-458.52 731.14,-455.87 730.62,-459.68"/>
<text text-anchor="middle" x="401.16" y="-637.59" font-family="Helvetica,sans-Serif" font-size="8.00">DESCRIBED_BY</text>
</g>
<!-- e_v6ent_19d488bf6174416c817f9c1e -->
<g id="node5" class="node">
<title>e_v6ent_19d488bf6174416c817f9c1e</title>
<ellipse fill="#dff4df" stroke="#4a8f4a" stroke-width="1.2" cx="175.02" cy="-1025.19" rx="113.75" ry="18"/>
<text text-anchor="middle" x="175.02" y="-1021.31" font-family="Helvetica,sans-Serif" font-size="10.00">Yosemite National Park\n(Location, d=5)</text>
</g>
<!-- m_episodic_ep_FUH2 -->
<g id="node21" class="node">
<title>m_episodic_ep_FUH2</title>
<path fill="#fff2bf" stroke="#b38a00" stroke-width="1.2" d="M1041.54,-861.19C1041.54,-861.19 613.79,-861.19 613.79,-861.19 607.79,-861.19 601.79,-855.19 601.79,-849.19 601.79,-849.19 601.79,-837.19 601.79,-837.19 601.79,-831.19 607.79,-825.19 613.79,-825.19 613.79,-825.19 1041.54,-825.19 1041.54,-825.19 1047.54,-825.19 1053.54,-831.19 1053.54,-837.19 1053.54,-837.19 1053.54,-849.19 1053.54,-849.19 1053.54,-855.19 1047.54,-861.19 1041.54,-861.19"/>
<text text-anchor="middle" x="827.66" y="-839.31" font-family="Helvetica,sans-Serif" font-size="10.00">E: 2023&#45;05&#45;17\nPlanned Eastern Sierra trip with\ncamping spots and hiking trails\nrecommendations</text>
</g>
<!-- e_v6ent_19d488bf6174416c817f9c1e&#45;&gt;m_episodic_ep_FUH2 -->
<g id="edge7" class="edge">
<title>e_v6ent_19d488bf6174416c817f9c1e&#45;&gt;m_episodic_ep_FUH2</title>
<path fill="none" stroke="#5f8dd3" d="M283.6,-1019.49C304.28,-1014.73 324.83,-1007.12 342.04,-995.19 362.02,-981.34 352.1,-964.61 370.04,-948.19 392.69,-927.45 409.33,-938.59 432.29,-918.19 449.61,-902.79 440.46,-886.19 460.29,-874.19 500.37,-849.93 547.58,-837.03 594.54,-830.98"/>
<polygon fill="#5f8dd3" stroke="#5f8dd3" points="594.73,-832.89 599.96,-830.32 594.27,-829.07 594.73,-832.89"/>
<text text-anchor="middle" x="401.16" y="-949.59" font-family="Helvetica,sans-Serif" font-size="8.00">APPEARS_IN</text>
</g>
<!-- m_episodic_ep_ZU0Z -->
<g id="node22" class="node">
<title>m_episodic_ep_ZU0Z</title>
<path fill="#fff2bf" stroke="#b38a00" stroke-width="1.2" d="M1019.79,-800.19C1019.79,-800.19 635.54,-800.19 635.54,-800.19 629.54,-800.19 623.54,-794.19 623.54,-788.19 623.54,-788.19 623.54,-776.19 623.54,-776.19 623.54,-770.19 629.54,-764.19 635.54,-764.19 635.54,-764.19 1019.79,-764.19 1019.79,-764.19 1025.79,-764.19 1031.79,-770.19 1031.79,-776.19 1031.79,-776.19 1031.79,-788.19 1031.79,-788.19 1031.79,-794.19 1025.79,-800.19 1019.79,-800.19"/>
<text text-anchor="middle" x="827.66" y="-778.31" font-family="Helvetica,sans-Serif" font-size="10.00">E: 2023&#45;05&#45;17\nPlanned trip to Eastern Sierra\nwith camping and hiking in July or\nAugust</text>
</g>
<!-- e_v6ent_19d488bf6174416c817f9c1e&#45;&gt;m_episodic_ep_ZU0Z -->
<g id="edge8" class="edge">
<title>e_v6ent_19d488bf6174416c817f9c1e&#45;&gt;m_episodic_ep_ZU0Z</title>
<path fill="none" stroke="#5f8dd3" d="M287.12,-1022.04C307.17,-1017.02 326.59,-1008.67 342.04,-995.19 372.33,-968.76 343.58,-939.46 370.04,-909.19 390.25,-886.06 411.1,-901.42 432.29,-879.19 454.27,-856.12 434.48,-831.88 460.29,-813.19 532.31,-761 634.47,-756.44 712.62,-763.12"/>
<polygon fill="#5f8dd3" stroke="#5f8dd3" points="711.99,-765 717.64,-763.57 712.34,-761.16 711.99,-765"/>
<text text-anchor="middle" x="401.16" y="-910.59" font-family="Helvetica,sans-Serif" font-size="8.00">APPEARS_IN</text>
</g>
<!-- m_episodic_ep_WGS1 -->
<g id="node23" class="node">
<title>m_episodic_ep_WGS1</title>
<path fill="#fff2bf" stroke="#b38a00" stroke-width="1.2" d="M1125.16,-739.19C1125.16,-739.19 530.16,-739.19 530.16,-739.19 524.16,-739.19 518.16,-733.19 518.16,-727.19 518.16,-727.19 518.16,-715.19 518.16,-715.19 518.16,-709.19 524.16,-703.19 530.16,-703.19 530.16,-703.19 1125.16,-703.19 1125.16,-703.19 1131.16,-703.19 1137.16,-709.19 1137.16,-715.19 1137.16,-715.19 1137.16,-727.19 1137.16,-727.19 1137.16,-733.19 1131.16,-739.19 1125.16,-739.19"/>
<text text-anchor="middle" x="827.66" y="-717.31" font-family="Helvetica,sans-Serif" font-size="10.00">E: 2023&#45;05&#45;15\nUser planned a trip to the Eastern\nSierra with focus on Mount Whitney\nTrail and camping near Whitney\nPortal Trailhead</text>
</g>
<!-- e_v6ent_19d488bf6174416c817f9c1e&#45;&gt;m_episodic_ep_WGS1 -->
<g id="edge9" class="edge">
<title>e_v6ent_19d488bf6174416c817f9c1e&#45;&gt;m_episodic_ep_WGS1</title>
<path fill="none" stroke="#5f8dd3" d="M288.15,-1023.17C308.12,-1018.06 327.24,-1009.38 342.04,-995.19 383.12,-955.78 334.64,-914.78 370.04,-870.19 389.13,-846.14 412.15,-863.38 432.29,-840.19 459.19,-809.19 428.21,-777.79 460.29,-752.19 534.78,-692.74 647,-692.09 727.6,-701.87"/>
<polygon fill="#5f8dd3" stroke="#5f8dd3" points="727.12,-703.75 732.82,-702.53 727.61,-699.93 727.12,-703.75"/>
<text text-anchor="middle" x="401.16" y="-871.59" font-family="Helvetica,sans-Serif" font-size="8.00">APPEARS_IN</text>
</g>
<!-- m_semantic_sem_TPM4 -->
<g id="node24" class="node">
<title>m_semantic_sem_TPM4</title>
<polygon fill="#dff7ff" stroke="#2f7f9f" stroke-width="1.2" points="986.41,-983.19 668.91,-983.19 668.91,-979.19 664.91,-979.19 664.91,-975.19 668.91,-975.19 668.91,-955.19 664.91,-955.19 664.91,-951.19 668.91,-951.19 668.91,-947.19 986.41,-947.19 986.41,-983.19"/>
<polyline fill="none" stroke="#2f7f9f" stroke-width="1.2" points="668.91,-979.19 672.91,-979.19 672.91,-975.19 668.91,-975.19"/>
<polyline fill="none" stroke="#2f7f9f" stroke-width="1.2" points="668.91,-955.19 672.91,-955.19 672.91,-951.19 668.91,-951.19"/>
<text text-anchor="middle" x="827.66" y="-961.31" font-family="Helvetica,sans-Serif" font-size="10.00">S: 2026&#45;06&#45;12\nDrive from Yosemite to Lone Pine\nand Scenic Stops</text>
</g>
<!-- e_v6ent_19d488bf6174416c817f9c1e&#45;&gt;m_semantic_sem_TPM4 -->
<g id="edge10" class="edge">
<title>e_v6ent_19d488bf6174416c817f9c1e&#45;&gt;m_semantic_sem_TPM4</title>
<path fill="none" stroke="#9b6bd3" d="M270.73,-1015.11C326,-1009.34 397.06,-1002.09 460.29,-996.19 526.21,-990.04 598.86,-983.78 661.96,-978.52"/>
<polygon fill="#9b6bd3" stroke="#9b6bd3" points="661.99,-980.45 667.31,-978.07 661.67,-976.61 661.99,-980.45"/>
<text text-anchor="middle" x="401.16" y="-1005.92" font-family="Helvetica,sans-Serif" font-size="8.00">DESCRIBED_BY</text>
</g>
<!-- m_semantic_sem_HRQD -->
<g id="node25" class="node">
<title>m_semantic_sem_HRQD</title>
<polygon fill="#dff7ff" stroke="#2f7f9f" stroke-width="1.2" points="959.41,-922.19 695.91,-922.19 695.91,-918.19 691.91,-918.19 691.91,-914.19 695.91,-914.19 695.91,-894.19 691.91,-894.19 691.91,-890.19 695.91,-890.19 695.91,-886.19 959.41,-886.19 959.41,-922.19"/>
<polyline fill="none" stroke="#2f7f9f" stroke-width="1.2" points="695.91,-918.19 699.91,-918.19 699.91,-914.19 695.91,-914.19"/>
<polyline fill="none" stroke="#2f7f9f" stroke-width="1.2" points="695.91,-894.19 699.91,-894.19 699.91,-890.19 695.91,-890.19"/>
<text text-anchor="middle" x="827.66" y="-900.31" font-family="Helvetica,sans-Serif" font-size="10.00">S: 2026&#45;06&#45;12\nAcclimatization for Mount Whitney\nHike</text>
</g>
<!-- e_v6ent_19d488bf6174416c817f9c1e&#45;&gt;m_semantic_sem_HRQD -->
<g id="edge11" class="edge">
<title>e_v6ent_19d488bf6174416c817f9c1e&#45;&gt;m_semantic_sem_HRQD</title>
<path fill="none" stroke="#9b6bd3" d="M262.17,-1013.32C288.12,-1008.76 316.49,-1002.77 342.04,-995.19 383.76,-982.8 394.79,-979.27 432.29,-957.19 445.92,-949.16 445.56,-940.99 460.29,-935.19 532.35,-906.81 618.41,-898.36 689.01,-897.34"/>
<polygon fill="#9b6bd3" stroke="#9b6bd3" points="688.8,-899.26 694.27,-897.28 688.75,-895.41 688.8,-899.26"/>
<text text-anchor="middle" x="401.16" y="-987.66" font-family="Helvetica,sans-Serif" font-size="8.00">DESCRIBED_BY</text>
</g>
<!-- e_v6ent_0ab178b797744b9d8b66a000 -->
<g id="node6" class="node">
<title>e_v6ent_0ab178b797744b9d8b66a000</title>
<ellipse fill="#dff4df" stroke="#4a8f4a" stroke-width="1.2" cx="175.02" cy="-1086.19" rx="99.11" ry="18"/>
<text text-anchor="middle" x="175.02" y="-1082.31" font-family="Helvetica,sans-Serif" font-size="10.00">Vatican Museums\n(Location, d=4)</text>
</g>
<!-- e_v6ent_0ab178b797744b9d8b66a000&#45;&gt;m_episodic_ep_FDEU -->
<g id="edge1" class="edge">
<title>e_v6ent_0ab178b797744b9d8b66a000&#45;&gt;m_episodic_ep_FDEU</title>
<path fill="none" stroke="#5f8dd3" d="M274.02,-1084.74C299.26,-1089.2 324.27,-1098.68 342.04,-1117.19 402.35,-1180.05 318.54,-1240.93 370.04,-1311.19 388.19,-1335.96 411.91,-1318.21 432.29,-1341.19 457.84,-1370 429.9,-1399.52 460.29,-1423.19 535.22,-1481.55 646.84,-1482.19 727.17,-1472.51"/>
<polygon fill="#5f8dd3" stroke="#5f8dd3" points="727.15,-1474.45 732.37,-1471.85 726.67,-1470.63 727.15,-1474.45"/>
<text text-anchor="middle" x="401.16" y="-1342.59" font-family="Helvetica,sans-Serif" font-size="8.00">APPEARS_IN</text>
</g>
<!-- e_v6ent_0ab178b797744b9d8b66a000&#45;&gt;m_episodic_ep_LKIU -->
<g id="edge2" class="edge">
<title>e_v6ent_0ab178b797744b9d8b66a000&#45;&gt;m_episodic_ep_LKIU</title>
<path fill="none" stroke="#5f8dd3" d="M273.45,-1083.38C299.3,-1087.68 324.78,-1097.42 342.04,-1117.19 383.81,-1165.04 334.94,-1635.24 370.04,-1688.19 387.01,-1713.79 413.33,-1694.03 432.29,-1718.19 469.31,-1765.37 415.27,-1810.57 460.29,-1850.19 535.77,-1916.63 657.14,-1912.64 739.3,-1899.76"/>
<polygon fill="#5f8dd3" stroke="#5f8dd3" points="739.52,-1901.67 744.64,-1898.89 738.91,-1897.87 739.52,-1901.67"/>
<text text-anchor="middle" x="401.16" y="-1719.59" font-family="Helvetica,sans-Serif" font-size="8.00">APPEARS_IN</text>
</g>
<!-- m_semantic_sem_IL0I -->
<g id="node17" class="node">
<title>m_semantic_sem_IL0I</title>
<polygon fill="#dff7ff" stroke="#2f7f9f" stroke-width="1.2" points="912.16,-1105.19 743.16,-1105.19 743.16,-1101.19 739.16,-1101.19 739.16,-1097.19 743.16,-1097.19 743.16,-1077.19 739.16,-1077.19 739.16,-1073.19 743.16,-1073.19 743.16,-1069.19 912.16,-1069.19 912.16,-1105.19"/>
<polyline fill="none" stroke="#2f7f9f" stroke-width="1.2" points="743.16,-1101.19 747.16,-1101.19 747.16,-1097.19 743.16,-1097.19"/>
<polyline fill="none" stroke="#2f7f9f" stroke-width="1.2" points="743.16,-1077.19 747.16,-1077.19 747.16,-1073.19 743.16,-1073.19"/>
<text text-anchor="middle" x="827.66" y="-1083.31" font-family="Helvetica,sans-Serif" font-size="10.00">S: 2026&#45;06&#45;12\nSt. Peter&#39;s Basilica</text>
</g>
<!-- e_v6ent_0ab178b797744b9d8b66a000&#45;&gt;m_semantic_sem_IL0I -->
<g id="edge3" class="edge">
<title>e_v6ent_0ab178b797744b9d8b66a000&#45;&gt;m_semantic_sem_IL0I</title>
<path fill="none" stroke="#9b6bd3" d="M274.48,-1086.34C399.83,-1086.53 614.64,-1086.86 736.09,-1087.05"/>
<polygon fill="#9b6bd3" stroke="#9b6bd3" points="735.86,-1088.97 741.36,-1087.06 735.86,-1085.12 735.86,-1088.97"/>
<text text-anchor="middle" x="401.16" y="-1087.97" font-family="Helvetica,sans-Serif" font-size="8.00">DESCRIBED_BY</text>
</g>
<!-- m_semantic_sem_THVY -->
<g id="node18" class="node">
<title>m_semantic_sem_THVY</title>
<polygon fill="#dff7ff" stroke="#2f7f9f" stroke-width="1.2" points="906.16,-1044.19 749.16,-1044.19 749.16,-1040.19 745.16,-1040.19 745.16,-1036.19 749.16,-1036.19 749.16,-1016.19 745.16,-1016.19 745.16,-1012.19 749.16,-1012.19 749.16,-1008.19 906.16,-1008.19 906.16,-1044.19"/>
<polyline fill="none" stroke="#2f7f9f" stroke-width="1.2" points="749.16,-1040.19 753.16,-1040.19 753.16,-1036.19 749.16,-1036.19"/>
<polyline fill="none" stroke="#2f7f9f" stroke-width="1.2" points="749.16,-1016.19 753.16,-1016.19 753.16,-1012.19 749.16,-1012.19"/>
<text text-anchor="middle" x="827.66" y="-1022.31" font-family="Helvetica,sans-Serif" font-size="10.00">S: 2026&#45;06&#45;12\nVatican in Rome</text>
</g>
<!-- e_v6ent_0ab178b797744b9d8b66a000&#45;&gt;m_semantic_sem_THVY -->
<g id="edge4" class="edge">
<title>e_v6ent_0ab178b797744b9d8b66a000&#45;&gt;m_semantic_sem_THVY</title>
<path fill="none" stroke="#9b6bd3" d="M261.5,-1077.08C317.92,-1071.16 393.48,-1063.42 460.29,-1057.19 556.84,-1048.18 667.82,-1038.95 742.1,-1032.93"/>
<polygon fill="#9b6bd3" stroke="#9b6bd3" points="741.89,-1034.88 747.22,-1032.51 741.58,-1031.04 741.89,-1034.88"/>
<text text-anchor="middle" x="401.16" y="-1066.92" font-family="Helvetica,sans-Serif" font-size="8.00">DESCRIBED_BY</text>
</g>
<!-- e_v6ent_beea932be9e6430da7e9dafc -->
<g id="node7" class="node">
<title>e_v6ent_beea932be9e6430da7e9dafc</title>
<ellipse fill="#ffe7bf" stroke="#bf7a12" stroke-width="1.2" cx="175.02" cy="-720.19" rx="159.02" ry="18"/>
<text text-anchor="middle" x="175.02" y="-716.31" font-family="Helvetica,sans-Serif" font-size="10.00">Speyer Tourismus\nMarketing GmbH\n(Organization, d=3)</text>
</g>
<!-- e_v6ent_beea932be9e6430da7e9dafc&#45;&gt;m_episodic_ep_ZBFP -->
<g id="edge55" class="edge">
<title>e_v6ent_beea932be9e6430da7e9dafc&#45;&gt;m_episodic_ep_ZBFP</title>
<path fill="none" stroke="#5f8dd3" d="M313.82,-711.31C324.44,-706.08 334.09,-699.19 342.04,-690.19 418.88,-603.07 305.63,-264.87 370.04,-168.19 387.06,-142.63 410.49,-159.82 432.29,-138.19 452.32,-118.31 436.98,-97.11 460.29,-81.19 528.72,-34.44 621.98,-27.14 697.27,-31.29"/>
<polygon fill="#5f8dd3" stroke="#5f8dd3" points="696.92,-33.2 702.53,-31.61 697.16,-29.35 696.92,-33.2"/>
<text text-anchor="middle" x="401.16" y="-169.59" font-family="Helvetica,sans-Serif" font-size="8.00">APPEARS_IN</text>
</g>
<!-- e_v6ent_beea932be9e6430da7e9dafc&#45;&gt;m_semantic_sem_XDIB -->
<g id="edge56" class="edge">
<title>e_v6ent_beea932be9e6430da7e9dafc&#45;&gt;m_semantic_sem_XDIB</title>
<path fill="none" stroke="#9b6bd3" d="M313.67,-711.18C324.32,-705.98 334.02,-699.13 342.04,-690.19 402.23,-622.99 319.44,-359.88 370.04,-285.19 387.26,-259.76 412.92,-279.02 432.29,-255.19 464.91,-215.03 420.92,-175.76 460.29,-142.19 535.28,-78.23 653.1,-80.15 734.79,-91.74"/>
<polygon fill="#9b6bd3" stroke="#9b6bd3" points="734.38,-93.63 740.1,-92.52 734.94,-89.82 734.38,-93.63"/>
<text text-anchor="middle" x="401.16" y="-286.59" font-family="Helvetica,sans-Serif" font-size="8.00">DESCRIBED_BY</text>
</g>
<!-- e_v6ent_beea932be9e6430da7e9dafc&#45;&gt;m_episodic_ep_BHKF -->
<g id="edge54" class="edge">
<title>e_v6ent_beea932be9e6430da7e9dafc&#45;&gt;m_episodic_ep_BHKF</title>
<path fill="none" stroke="#5f8dd3" d="M313.02,-711.13C323.87,-705.96 333.8,-699.13 342.04,-690.19 385.61,-642.9 322.42,-445.4 370.04,-402.19 389.47,-384.55 510.88,-388.89 623.62,-397.2"/>
<polygon fill="#5f8dd3" stroke="#5f8dd3" points="623.21,-399.1 628.84,-397.59 623.49,-395.26 623.21,-399.1"/>
<text text-anchor="middle" x="401.16" y="-403.59" font-family="Helvetica,sans-Serif" font-size="8.00">APPEARS_IN</text>
</g>
<!-- e_v6ent_4dfeb7caa0b0468295a1911e -->
<g id="node8" class="node">
<title>e_v6ent_4dfeb7caa0b0468295a1911e</title>
<ellipse fill="#ffe7bf" stroke="#bf7a12" stroke-width="1.2" cx="175.02" cy="-1269.19" rx="101.77" ry="18"/>
<text text-anchor="middle" x="175.02" y="-1265.31" font-family="Helvetica,sans-Serif" font-size="10.00">Caffè Vaticano\n(Organization, d=2)</text>
</g>
<!-- e_v6ent_4dfeb7caa0b0468295a1911e&#45;&gt;m_episodic_ep_VT1U -->
<g id="edge27" class="edge">
<title>e_v6ent_4dfeb7caa0b0468295a1911e&#45;&gt;m_episodic_ep_VT1U</title>
<path fill="none" stroke="#5f8dd3" d="M276.19,-1266.71C301.14,-1271.22 325.46,-1280.99 342.04,-1300.19 395.51,-1362.14 327.8,-1966.09 370.04,-2036.19 386.53,-2063.56 412.04,-2047.46 432.29,-2072.19 456.95,-2102.31 429.62,-2131.21 460.29,-2155.19 535.23,-2213.78 647.11,-2214.31 727.51,-2204.53"/>
<polygon fill="#5f8dd3" stroke="#5f8dd3" points="727.5,-2206.47 732.71,-2203.87 727.01,-2202.65 727.5,-2206.47"/>
<text text-anchor="middle" x="401.16" y="-2073.59" font-family="Helvetica,sans-Serif" font-size="8.00">APPEARS_IN</text>
</g>
<!-- m_semantic_sem_AFTY -->
<g id="node40" class="node">
<title>m_semantic_sem_AFTY</title>
<polygon fill="#dff7ff" stroke="#2f7f9f" stroke-width="1.2" points="925.29,-2081.19 730.04,-2081.19 730.04,-2077.19 726.04,-2077.19 726.04,-2073.19 730.04,-2073.19 730.04,-2053.19 726.04,-2053.19 726.04,-2049.19 730.04,-2049.19 730.04,-2045.19 925.29,-2045.19 925.29,-2081.19"/>
<polyline fill="none" stroke="#2f7f9f" stroke-width="1.2" points="730.04,-2077.19 734.04,-2077.19 734.04,-2073.19 730.04,-2073.19"/>
<polyline fill="none" stroke="#2f7f9f" stroke-width="1.2" points="730.04,-2053.19 734.04,-2053.19 734.04,-2049.19 730.04,-2049.19"/>
<text text-anchor="middle" x="827.66" y="-2059.31" font-family="Helvetica,sans-Serif" font-size="10.00">S: 2026&#45;06&#45;12\nRestaurants near Vatican</text>
</g>
<!-- e_v6ent_4dfeb7caa0b0468295a1911e&#45;&gt;m_semantic_sem_AFTY -->
<g id="edge28" class="edge">
<title>e_v6ent_4dfeb7caa0b0468295a1911e&#45;&gt;m_semantic_sem_AFTY</title>
<path fill="none" stroke="#9b6bd3" d="M276.5,-1266.9C301.29,-1271.44 325.47,-1281.18 342.04,-1300.19 384.87,-1349.32 349.91,-1824.19 370.04,-1886.19 385.62,-1934.2 406.46,-1937.81 432.29,-1981.19 445.71,-2003.74 438.32,-2018.82 460.29,-2033.19 537.69,-2083.82 644.87,-2086.74 723.31,-2079.74"/>
<polygon fill="#9b6bd3" stroke="#9b6bd3" points="723.05,-2081.7 728.35,-2079.27 722.69,-2077.87 723.05,-2081.7"/>
<text text-anchor="middle" x="401.16" y="-1982.59" font-family="Helvetica,sans-Serif" font-size="8.00">DESCRIBED_BY</text>
</g>
<!-- e_v6ent_a267fc199d5f4bdeb5a5f113 -->
<g id="node9" class="node">
<title>e_v6ent_a267fc199d5f4bdeb5a5f113</title>
<ellipse fill="#dff4df" stroke="#4a8f4a" stroke-width="1.2" cx="175.02" cy="-842.19" rx="97.78" ry="18"/>
<text text-anchor="middle" x="175.02" y="-838.31" font-family="Helvetica,sans-Serif" font-size="10.00">LINQ Promenade\n(Location, d=2)</text>
</g>
<!-- m_episodic_ep_WRPP -->
<g id="node49" class="node">
<title>m_episodic_ep_WRPP</title>
<path fill="#fff2bf" stroke="#b38a00" stroke-width="1.2" d="M1020.54,-373.19C1020.54,-373.19 634.79,-373.19 634.79,-373.19 628.79,-373.19 622.79,-367.19 622.79,-361.19 622.79,-361.19 622.79,-349.19 622.79,-349.19 622.79,-343.19 628.79,-337.19 634.79,-337.19 634.79,-337.19 1020.54,-337.19 1020.54,-337.19 1026.54,-337.19 1032.54,-343.19 1032.54,-349.19 1032.54,-349.19 1032.54,-361.19 1032.54,-361.19 1032.54,-367.19 1026.54,-373.19 1020.54,-373.19"/>
<text text-anchor="middle" x="827.66" y="-351.31" font-family="Helvetica,sans-Serif" font-size="10.00">E: 2023&#45;05&#45;20\nUser inquires about Hilton Grand\nVacations Club on the Las Vegas\nStrip</text>
</g>
<!-- e_v6ent_a267fc199d5f4bdeb5a5f113&#45;&gt;m_episodic_ep_WRPP -->
<g id="edge44" class="edge">
<title>e_v6ent_a267fc199d5f4bdeb5a5f113&#45;&gt;m_episodic_ep_WRPP</title>
<path fill="none" stroke="#5f8dd3" d="M271.79,-845.08C297.9,-840.99 323.95,-831.57 342.04,-812.19 380.78,-770.67 337.24,-604.54 370.04,-558.19 387.78,-533.12 413.5,-552.48 432.29,-528.19 471.63,-477.3 412.36,-429.1 460.29,-386.19 535.11,-319.2 656.34,-322.84 738.68,-335.6"/>
<polygon fill="#5f8dd3" stroke="#5f8dd3" points="738.3,-337.48 744.03,-336.45 738.91,-333.68 738.3,-337.48"/>
<text text-anchor="middle" x="401.16" y="-559.59" font-family="Helvetica,sans-Serif" font-size="8.00">APPEARS_IN</text>
</g>
<!-- m_semantic_sem_Z14R -->
<g id="node50" class="node">
<title>m_semantic_sem_Z14R</title>
<polygon fill="#dff7ff" stroke="#2f7f9f" stroke-width="1.2" points="971.04,-312.19 684.29,-312.19 684.29,-308.19 680.29,-308.19 680.29,-304.19 684.29,-304.19 684.29,-284.19 680.29,-284.19 680.29,-280.19 684.29,-280.19 684.29,-276.19 971.04,-276.19 971.04,-312.19"/>
<polyline fill="none" stroke="#2f7f9f" stroke-width="1.2" points="684.29,-308.19 688.29,-308.19 688.29,-304.19 684.29,-304.19"/>
<polyline fill="none" stroke="#2f7f9f" stroke-width="1.2" points="684.29,-284.19 688.29,-284.19 688.29,-280.19 684.29,-280.19"/>
<text text-anchor="middle" x="827.66" y="-290.31" font-family="Helvetica,sans-Serif" font-size="10.00">S: 2026&#45;06&#45;12\nHilton Grand Vacations Club Las\nVegas Strip</text>
</g>
<!-- e_v6ent_a267fc199d5f4bdeb5a5f113&#45;&gt;m_semantic_sem_Z14R -->
<g id="edge45" class="edge">
<title>e_v6ent_a267fc199d5f4bdeb5a5f113&#45;&gt;m_semantic_sem_Z14R</title>
<path fill="none" stroke="#9b6bd3" d="M271.53,-845.31C297.8,-841.27 323.99,-831.8 342.04,-812.19 386.32,-764.05 332.65,-572.86 370.04,-519.19 387.59,-493.99 413.81,-513.72 432.29,-489.19 476.77,-430.12 405.83,-375.21 460.29,-325.19 535.04,-256.51 658.3,-261.2 740.96,-274.6"/>
<polygon fill="#9b6bd3" stroke="#9b6bd3" points="740.6,-276.49 746.34,-275.5 741.23,-272.69 740.6,-276.49"/>
<text text-anchor="middle" x="401.16" y="-520.59" font-family="Helvetica,sans-Serif" font-size="8.00">DESCRIBED_BY</text>
</g>
<!-- e_v6ent_97257e66191c4a79a700a293 -->
<g id="node10" class="node">
<title>e_v6ent_97257e66191c4a79a700a293</title>
<ellipse fill="#dff4df" stroke="#4a8f4a" stroke-width="1.2" cx="175.02" cy="-781.19" rx="117.3" ry="18"/>
<text text-anchor="middle" x="175.02" y="-777.31" font-family="Helvetica,sans-Serif" font-size="10.00">Natural Park of Moncayo\n(Location, d=2)</text>
</g>
<!-- m_episodic_ep_UTTI -->
<g id="node47" class="node">
<title>m_episodic_ep_UTTI</title>
<path fill="#fff2bf" stroke="#b38a00" stroke-width="1.2" d="M1127.04,-251.19C1127.04,-251.19 528.29,-251.19 528.29,-251.19 522.29,-251.19 516.29,-245.19 516.29,-239.19 516.29,-239.19 516.29,-227.19 516.29,-227.19 516.29,-221.19 522.29,-215.19 528.29,-215.19 528.29,-215.19 1127.04,-215.19 1127.04,-215.19 1133.04,-215.19 1139.04,-221.19 1139.04,-227.19 1139.04,-227.19 1139.04,-239.19 1139.04,-239.19 1139.04,-245.19 1133.04,-251.19 1127.04,-251.19"/>
<text text-anchor="middle" x="827.66" y="-229.31" font-family="Helvetica,sans-Serif" font-size="10.00">E: 2023&#45;05&#45;25\nAssistant recommended travel\nwebsites for finding rural\ncottages near the Natural Park of\nMoncayo mountain in Aragón.</text>
</g>
<!-- e_v6ent_97257e66191c4a79a700a293&#45;&gt;m_episodic_ep_UTTI -->
<g id="edge42" class="edge">
<title>e_v6ent_97257e66191c4a79a700a293&#45;&gt;m_episodic_ep_UTTI</title>
<path fill="none" stroke="#5f8dd3" d="M292.06,-779.81C310.97,-774.49 328.7,-765.58 342.04,-751.19 383.19,-706.79 335.24,-529.73 370.04,-480.19 387.69,-455.06 414.06,-474.9 432.29,-450.19 481.91,-382.91 399.28,-321.35 460.29,-264.19 534.82,-194.35 659.3,-199.7 742.18,-213.54"/>
<polygon fill="#5f8dd3" stroke="#5f8dd3" points="741.83,-215.43 747.58,-214.46 742.49,-211.63 741.83,-215.43"/>
<text text-anchor="middle" x="401.16" y="-481.59" font-family="Helvetica,sans-Serif" font-size="8.00">APPEARS_IN</text>
</g>
<!-- m_episodic_ep_Q262 -->
<g id="node48" class="node">
<title>m_episodic_ep_Q262</title>
<path fill="#fff2bf" stroke="#b38a00" stroke-width="1.2" d="M1076.79,-190.19C1076.79,-190.19 578.54,-190.19 578.54,-190.19 572.54,-190.19 566.54,-184.19 566.54,-178.19 566.54,-178.19 566.54,-166.19 566.54,-166.19 566.54,-160.19 572.54,-154.19 578.54,-154.19 578.54,-154.19 1076.79,-154.19 1076.79,-154.19 1082.79,-154.19 1088.79,-160.19 1088.79,-166.19 1088.79,-166.19 1088.79,-178.19 1088.79,-178.19 1088.79,-184.19 1082.79,-190.19 1076.79,-190.19"/>
<text text-anchor="middle" x="827.66" y="-168.31" font-family="Helvetica,sans-Serif" font-size="10.00">E: 2023&#45;05&#45;25\nAssistant provided accommodation\noptions near the Natural Park of\nMoncayo mountain in Aragón.</text>
</g>
<!-- e_v6ent_97257e66191c4a79a700a293&#45;&gt;m_episodic_ep_Q262 -->
<g id="edge43" class="edge">
<title>e_v6ent_97257e66191c4a79a700a293&#45;&gt;m_episodic_ep_Q262</title>
<path fill="none" stroke="#5f8dd3" d="M292.4,-780.12C311.27,-774.77 328.9,-765.77 342.04,-751.19 398.11,-688.93 327.98,-447.66 370.04,-375.19 386.79,-346.32 413.59,-360.83 432.29,-333.19 465.4,-284.23 415.91,-242.23 460.29,-203.19 535.22,-137.26 655.29,-140.3 737.41,-152.66"/>
<polygon fill="#5f8dd3" stroke="#5f8dd3" points="737.02,-154.54 742.75,-153.49 737.61,-150.74 737.02,-154.54"/>
<text text-anchor="middle" x="401.16" y="-376.59" font-family="Helvetica,sans-Serif" font-size="8.00">APPEARS_IN</text>
</g>
<!-- e_v6ent_8ef4907cb5e94a3aa25a06b6 -->
<g id="node11" class="node">
<title>e_v6ent_8ef4907cb5e94a3aa25a06b6</title>
<ellipse fill="#ffe7bf" stroke="#bf7a12" stroke-width="1.2" cx="175.02" cy="-964.19" rx="120.85" ry="18"/>
<text text-anchor="middle" x="175.02" y="-960.31" font-family="Helvetica,sans-Serif" font-size="10.00">Speyer Tourism Board\n(Organization, d=2)</text>
</g>
<!-- e_v6ent_8ef4907cb5e94a3aa25a06b6&#45;&gt;m_episodic_ep_AO8Y -->
<g id="edge39" class="edge">
<title>e_v6ent_8ef4907cb5e94a3aa25a06b6&#45;&gt;m_episodic_ep_AO8Y</title>
<path fill="none" stroke="#5f8dd3" d="M293.21,-960.13C311.21,-954.94 328.33,-946.76 342.04,-934.19 377,-902.13 339.71,-867.67 370.04,-831.19 389.67,-807.57 412.84,-824.96 432.29,-801.19 464.22,-762.14 421.8,-723.8 460.29,-691.19 535.25,-627.67 652.52,-629.32 734.12,-640.75"/>
<polygon fill="#5f8dd3" stroke="#5f8dd3" points="733.7,-642.63 739.42,-641.51 734.25,-638.82 733.7,-642.63"/>
<text text-anchor="middle" x="401.16" y="-832.59" font-family="Helvetica,sans-Serif" font-size="8.00">APPEARS_IN</text>
</g>
<!-- e_v6ent_8ef4907cb5e94a3aa25a06b6&#45;&gt;m_semantic_sem_KZ93 -->
<g id="edge40" class="edge">
<title>e_v6ent_8ef4907cb5e94a3aa25a06b6&#45;&gt;m_semantic_sem_KZ93</title>
<path fill="none" stroke="#9b6bd3" d="M293.97,-960.94C311.89,-955.65 328.78,-947.23 342.04,-934.19 387.88,-889.07 330.69,-843.08 370.04,-792.19 388.82,-767.89 413.33,-786.35 432.29,-762.19 469.31,-715.01 415.32,-669.87 460.29,-630.19 535.24,-564.04 655.58,-567.22 737.74,-579.66"/>
<polygon fill="#9b6bd3" stroke="#9b6bd3" points="737.35,-581.55 743.09,-580.5 737.95,-577.75 737.35,-581.55"/>
<text text-anchor="middle" x="401.16" y="-793.59" font-family="Helvetica,sans-Serif" font-size="8.00">DESCRIBED_BY</text>
</g>
<!-- e_v6ent_528e7bd8404741a4a812ea94 -->
<g id="node12" class="node">
<title>e_v6ent_528e7bd8404741a4a812ea94</title>
<ellipse fill="#eeeeee" stroke="#777777" stroke-width="1.2" cx="175.02" cy="-598.19" rx="103.99" ry="18"/>
<text text-anchor="middle" x="175.02" y="-594.31" font-family="Helvetica,sans-Serif" font-size="10.00">https://www.speyer.de/\n(Other, d=2)</text>
</g>
<!-- e_v6ent_528e7bd8404741a4a812ea94&#45;&gt;m_episodic_ep_ZBFP -->
<g id="edge29" class="edge">
<title>e_v6ent_528e7bd8404741a4a812ea94&#45;&gt;m_episodic_ep_ZBFP</title>
<path fill="none" stroke="#5f8dd3" d="M278.47,-600.61C302.51,-596.04 325.81,-586.49 342.04,-568.19 412.62,-488.56 296.35,-166.95 370.04,-90.19 407.15,-51.53 531.59,-42.48 641.21,-42.58"/>
<polygon fill="#5f8dd3" stroke="#5f8dd3" points="641.06,-44.5 646.56,-42.59 641.07,-40.65 641.06,-44.5"/>
<text text-anchor="middle" x="401.16" y="-91.59" font-family="Helvetica,sans-Serif" font-size="8.00">APPEARS_IN</text>
</g>
<!-- e_v6ent_528e7bd8404741a4a812ea94&#45;&gt;m_semantic_sem_XDIB -->
<g id="edge30" class="edge">
<title>e_v6ent_528e7bd8404741a4a812ea94&#45;&gt;m_semantic_sem_XDIB</title>
<path fill="none" stroke="#9b6bd3" d="M278.67,-600.32C302.56,-595.72 325.74,-586.23 342.04,-568.19 395.98,-508.48 324.63,-273.62 370.04,-207.19 387.37,-181.83 408.26,-196.32 432.29,-177.19 447.87,-164.78 442.71,-151.57 460.29,-142.19 541.33,-98.94 647.03,-94.52 724.06,-98.94"/>
<polygon fill="#9b6bd3" stroke="#9b6bd3" points="723.84,-100.85 729.44,-99.27 724.07,-97.01 723.84,-100.85"/>
<text text-anchor="middle" x="401.16" y="-208.59" font-family="Helvetica,sans-Serif" font-size="8.00">DESCRIBED_BY</text>
</g>
<!-- e_v6ent_136cf70a1a09469bad593070 -->
<g id="node13" class="node">
<title>e_v6ent_136cf70a1a09469bad593070</title>
<ellipse fill="#eeeeee" stroke="#777777" stroke-width="1.2" cx="175.02" cy="-659.19" rx="85.35" ry="18"/>
<text text-anchor="middle" x="175.02" y="-655.31" font-family="Helvetica,sans-Serif" font-size="10.00">info@speyer.de\n(Other, d=2)</text>
</g>
<!-- e_v6ent_136cf70a1a09469bad593070&#45;&gt;m_episodic_ep_ZBFP -->
<g id="edge5" class="edge">
<title>e_v6ent_136cf70a1a09469bad593070&#45;&gt;m_episodic_ep_ZBFP</title>
<path fill="none" stroke="#5f8dd3" d="M256.89,-664.5C287.96,-662.01 320.99,-653 342.04,-629.19 415.75,-545.82 308.23,-221.73 370.04,-129.19 387.09,-103.65 405.49,-114.19 432.29,-99.19 445.2,-91.96 446.28,-85.95 460.29,-81.19 517.31,-61.79 582.08,-52.48 641.13,-48.46"/>
<polygon fill="#5f8dd3" stroke="#5f8dd3" points="641.06,-50.39 646.42,-48.11 640.81,-46.55 641.06,-50.39"/>
<text text-anchor="middle" x="401.16" y="-130.59" font-family="Helvetica,sans-Serif" font-size="8.00">APPEARS_IN</text>
</g>
<!-- e_v6ent_136cf70a1a09469bad593070&#45;&gt;m_semantic_sem_XDIB -->
<g id="edge6" class="edge">
<title>e_v6ent_136cf70a1a09469bad593070&#45;&gt;m_semantic_sem_XDIB</title>
<path fill="none" stroke="#9b6bd3" d="M257.54,-664.25C288.33,-661.64 320.98,-652.6 342.04,-629.19 399.11,-565.74 322.04,-316.75 370.04,-246.19 387.31,-220.79 411.54,-238.83 432.29,-216.19 456.04,-190.26 432.22,-163.38 460.29,-142.19 534.98,-85.79 644.31,-83.82 724.08,-92.44"/>
<polygon fill="#9b6bd3" stroke="#9b6bd3" points="723.56,-94.32 729.24,-93.02 723.99,-90.5 723.56,-94.32"/>
<text text-anchor="middle" x="401.16" y="-247.59" font-family="Helvetica,sans-Serif" font-size="8.00">DESCRIBED_BY</text>
</g>
<!-- e_v6ent_8ff444564a8d4571a29d9180 -->
<g id="node14" class="node">
<title>e_v6ent_8ff444564a8d4571a29d9180</title>
<ellipse fill="#eeeeee" stroke="#777777" stroke-width="1.2" cx="175.02" cy="-537.19" rx="80.47" ry="18"/>
<text text-anchor="middle" x="175.02" y="-533.31" font-family="Helvetica,sans-Serif" font-size="10.00">67346 Speyer\n(Other, d=1)</text>
</g>
<!-- e_v6ent_8ff444564a8d4571a29d9180&#45;&gt;m_episodic_ep_ZBFP -->
<g id="edge41" class="edge">
<title>e_v6ent_8ff444564a8d4571a29d9180&#45;&gt;m_episodic_ep_ZBFP</title>
<path fill="none" stroke="#5f8dd3" d="M176.59,-518.74C180.03,-444.23 203.94,-163.99 370.04,-51.19 489.16,29.71 669.12,-3.69 763.62,-29.92"/>
<polygon fill="#5f8dd3" stroke="#5f8dd3" points="763,-31.74 768.81,-31.38 764.04,-28.04 763,-31.74"/>
<text text-anchor="middle" x="401.16" y="-52.59" font-family="Helvetica,sans-Serif" font-size="8.00">APPEARS_IN</text>
</g>
</g>
</svg>
